<svg xmlns="http://www.w3.org/2000/svg" xmlns:xlink="http://www.w3.org/1999/xlink" id="Layer_1" x="0" y="0" version="1.1" viewBox="0 0 100 100" xml:space="preserve" style="enable-background:new 0 0 100 100"><style type="text/css">.st0{fill:none}.st1{fill:#2684ff}.st2{fill:url(#SVGID_1_)}</style><g><polygon points="44.2 58.1 55.8 58.1 58.6 41.8 41.1 41.8" class="st0"/><path d="M24,25c-0.5,0-1,0.2-1.4,0.6c-0.3,0.4-0.5,0.9-0.4,1.4L29.8,73c0.2,1.2,1.2,2,2.4,2h36.3 c0.9,0,1.6-0.6,1.8-1.5l7.6-46.4c0.1-0.5-0.1-1-0.4-1.4S76.5,25,76,25L24,25z M55.8,58.2H44.3l-3.1-16.4h17.5L55.8,58.2z" class="st1"/><linearGradient id="SVGID_1_" x1="71.847" x2="71.713" y1="418.773" y2="418.632" gradientTransform="matrix(206 0 0 -152.7284 -14721.3896 64004.8828)" gradientUnits="userSpaceOnUse"><stop offset=".18" style="stop-color:#0052cc"/><stop offset="1" style="stop-color:#2684ff"/></linearGradient><path d="M75.3,41.8H58.6l-2.8,16.4H44.2L30.6,74.4c0.4,0.4,1,0.6,1.6,0.6h36.3c0.9,0,1.6-0.6,1.8-1.5L75.3,41.8z" class="st2"/></g></svg>