<svg xmlns="http://www.w3.org/2000/svg" xmlns:xlink="http://www.w3.org/1999/xlink" id="Layer_1" x="0" y="0" version="1.1" viewBox="0 0 100 100" xml:space="preserve" style="enable-background:new 0 0 100 100"><style type="text/css">.st0{fill:#4d4d4d}.st1{fill:#d3d3d3}.st2{fill:#25c6eb}.st3{fill:#00b7e5}.st4{fill:#008aac}</style><g><polygon points="71 37.1 63.8 25 34.9 25 27.7 37.1 20.5 50 27.7 62.9 34.9 75 63.8 75 71 62.9 78.2 50" class="st0"/><path d="M77.2,37.1h-6.4h-43L20.2,50l7.5,12.9h43h6.4c1.3,0,2.6-1.3,2.6-2.6V39.7C79.8,38.4,78.7,37.1,77.2,37.1z" class="st1"/><polygon points="40.3 66.5 45.2 66.5 47.3 62.9 47.3 62.9 47.3 62.9 47.3 62.9 39.8 50 47.3 37.1 47.3 37.1 47.3 37.1 47.3 37.1 45.2 33.5 40.3 33.5 30.8 50 30.8 50 30.8 50" class="st2"/><polygon points="58.4 66.5 53.5 66.5 51.4 62.9 51.4 62.9 51.4 62.9 51.4 62.9 58.9 50 51.4 37.1 51.4 37.1 51.4 37.1 51.4 37.1 53.5 33.5 58.4 33.5 67.9 50 67.9 50 67.9 50" class="st2"/><g><polygon points="65.6 45.6 53.5 66.5 58.4 66.5 67.9 50 67.9 50 67.9 50" class="st3"/></g><g><polygon points="33.1 54.4 45.2 33.5 40.3 33.5 30.8 50 30.8 50 30.8 50" class="st4"/></g><polygon points="39.8 50 35.7 50 45.2 33.5 47.3 37.1" class="st3"/><polygon points="58.9 50 63 50 53.5 66.5 51.4 62.9" class="st4"/><polygon points="40.3 66.5 45.2 66.5 35.7 50 33.1 54.4" class="st3"/><polygon points="63 50 53.5 33.5 51.4 37.1 58.9 50" class="st3"/></g></svg>