<svg xmlns="http://www.w3.org/2000/svg" xmlns:xlink="http://www.w3.org/1999/xlink" id="Layer_1" x="0" y="0" version="1.1" viewBox="0 0 100 100" xml:space="preserve" style="enable-background:new 0 0 100 100"><style type="text/css">.st0{fill:#f25022}.st1{fill:#80ba01}.st2{fill:#02a4ef}.st3{fill:#ffb902}</style><g><g><path d="M25,25h23.8c0,7.9,0,15.9,0,23.8c-7.9,0-15.9,0-23.8,0V25L25,25z" class="st0"/><path d="M51.2,25H75c0,7.9,0,15.9,0,23.8c-7.9,0-15.9,0-23.8,0C51.2,40.7,51.2,32.7,51.2,25L51.2,25z" class="st1"/><path d="M25,51.2c7.9,0,15.9,0,23.8,0c0,7.9,0,15.9,0,23.8H25V51.2L25,51.2z" class="st2"/><path d="M51.2,51.2c7.9,0,15.9,0,23.8,0c0,7.9,0,15.9,0,23.8H51.2C51.2,66.8,51.2,58.9,51.2,51.2L51.2,51.2z" class="st3"/></g></g></svg>