<svg xmlns="http://www.w3.org/2000/svg" xmlns:xlink="http://www.w3.org/1999/xlink" id="Layer_1" x="0" y="0" version="1.1" viewBox="0 0 100 100" xml:space="preserve" style="enable-background:new 0 0 100 100"><style type="text/css">.st0{opacity:.98}.st1{fill:#ec1944}</style><g class="st0"><path d="M70.8,25H29.2c-2.6,0-4.7,2.1-4.8,4.8v11.2H36v-1.8c0-1.4,1.2-2.6,2.6-2.6h22.9c1.4,0,2.6,1.2,2.6,2.6v1.8 h11.5V29.7C75.5,27.1,73.4,25,70.8,25z" class="st1"/><path d="M64,60.9c0,1.4-1.2,2.6-2.6,2.6H38.6c-1.4,0-2.6-1.2-2.6-2.6v-1.8H24.5v11.2c0,2.6,2.1,4.7,4.8,4.8h41.6 c2.6,0,4.7-2.1,4.8-4.8V59.1H64V60.9z" class="st1"/><rect width="11.5" height="11.5" x="24.5" y="44.2" class="st1"/><rect width="11.5" height="11.5" x="64" y="44.2" class="st1"/></g></svg>