<svg xmlns="http://www.w3.org/2000/svg" xmlns:xlink="http://www.w3.org/1999/xlink" id="Layer_1" x="0" y="0" version="1.1" viewBox="0 0 100 100" xml:space="preserve" style="enable-background:new 0 0 100 100"><style type="text/css">.st0{fill:#e71682}.st1{fill:#fdf4f9}.st2{fill:#e40975}.st3{fill:#ef9ec5}</style><g><path d="M69,75H31c-3.2999992,0-6-2.6999969-6-6V31c0-3.2999992,2.7000008-6,6-6h38c3.3000031,0,6,2.7000008,6,6v38 C75,72.3000031,72.3000031,75,69,75z" class="st0"/><path d="M68.6578827,51.3691559c0-3.1803741-2.3117065-5.8144035-5.3451118-6.3305092 c-0.7176056-5.0611801-5.0556793-8.9575539-10.3150597-8.9575539c-3.5885887,0-6.752697,1.8131065-8.6296082,4.572258 c-0.7441902-0.361515-1.5763969-0.5700378-2.4593163-0.5700378c-2.9254723,0-5.3304176,2.2262993-5.6143532,5.0769997 c-2.7530441,0.7270813-4.785677,3.227314-4.785677,6.2088432c0,3.55056,2.8782902,6.4288483,6.4288502,6.4288483h24.6927338 v-0.0202789C65.992981,57.5695648,68.6578827,54.7842331,68.6578827,51.3691559z" class="st1"/><polygon points="47.076 47.335 51.111 43.3 55.146 47.335" class="st2"/><rect width="1.124" height="4.964" x="50.549" y="47.335" class="st2"/><path d="M62.5220947,64.2216644H38.0872841c-0.5499992,0-1-0.4499969-1-0.9999962v-6.8592377 c0-0.5499992,0.4500008-1,1-1h24.4348106c0.5500031,0,1,0.4500008,1,1v6.8592377 C63.5220947,63.7716675,63.0720978,64.2216644,62.5220947,64.2216644z" class="st3"/><g><g><rect width="1.151" height="1.151" x="39.786" y="60.52" class="st2"/><rect width="1.151" height="1.151" x="42.819" y="60.52" class="st2"/><rect width="1.151" height="1.151" x="45.852" y="60.52" class="st2"/><rect width="1.151" height="1.151" x="48.885" y="60.52" class="st2"/><rect width="1.151" height="1.151" x="39.786" y="57.913" class="st2"/><rect width="1.151" height="1.151" x="42.819" y="57.913" class="st2"/><rect width="1.151" height="1.151" x="45.852" y="57.913" class="st2"/><rect width="1.151" height="1.151" x="48.885" y="57.913" class="st2"/></g><circle cx="59.08" cy="59.656" r="1.744" class="st2"/></g></g></svg>