<svg xmlns="http://www.w3.org/2000/svg" xmlns:xlink="http://www.w3.org/1999/xlink" id="Layer_1" x="0" y="0" version="1.1" viewBox="0 0 100 100" xml:space="preserve" style="enable-background:new 0 0 100 100"><style type="text/css">.st0{fill:#dfa22f}.st1{fill:#3cb187}.st2{fill:#ce1e5b}.st3{fill:#392538}.st4{fill:#bb242a}.st5{fill:#72c5cd}.st6{fill:#248c73}.st7{fill:#62803a}</style><path d="M57.0336304,28.4664593c-0.7600021-2.3395939-3.2728882-3.619875-5.6120949-2.8594818	c-2.339592,0.7600021-3.619873,3.272892-2.8594818,5.6120949l11.5166626,35.4338531	c0.7908707,2.1856461,3.1517601,3.4137573,5.418087,2.7616043c2.3640137-0.6804886,3.8048935-3.1912308,3.0505524-5.5128441	L57.0336304,28.4664593" class="st0"/><path d="M39.1886368,34.2647438c-0.7603912-2.3393993-3.2730865-3.6196785-5.6122894-2.8596764	c-2.3397903,0.7601967-3.620266,3.272892-2.8596783,5.612484l11.5168591,35.4340477	c0.7906723,2.1854477,3.1517601,3.4137573,5.418087,2.7610168c2.3638229-0.6800919,3.8046989-3.190834,3.0503616-5.5128479	L39.1886368,34.2647438" class="st1"/><path d="M71.5299301,57.8128738c2.339592-0.7599983,3.6194763-3.2724991,2.8594818-5.6122856	c-0.7600021-2.3392029-3.2728882-3.6196823-5.6120987-2.8594818L33.3434639,60.8581581	c-2.1856422,0.7904816-3.4137573,3.151371-2.7616024,5.4176979c0.6804848,2.3638153,3.1912251,3.8048935,5.512846,3.0505524	l35.435215-11.51334" class="st2"/><path d="M40.728569,67.8208694l8.4688416-2.7516403l-2.7520294-8.4698143l-8.4694252,2.7528038l2.7526131,8.4688416" class="st3"/><path d="M58.5737572,62.0223885c3.2017746-1.0399742,6.1777-2.0070686,8.4690361-2.7516365l-2.7524185-8.4713821	l-8.4694214,2.7528076l2.7528076,8.470211" class="st4"/><path d="M65.7316437,39.9676857c2.3393936-0.7600021,3.6196747-3.2726936,2.8596725-5.612484	c-0.7600021-2.3392029-3.2728882-3.619482-5.612484-2.8594818L27.5447865,43.0129662	c-2.1854439,0.7900887-3.4137554,3.1511765-2.761013,5.4175034c0.6800938,2.3636246,3.190834,3.8046989,5.5128441,3.0503654	l35.4350281-11.5133438" class="st5"/><path d="M34.9287186,49.9760666c2.3063812-0.7494507,5.2799606-1.7157669,8.4702072-2.7520256	c-1.0399704-3.2021675-2.0070686-6.1780891-2.7516327-8.4698181l-8.4713821,2.7532005L34.9287186,49.9760666" class="st6"/><path d="M52.773716,44.1779785l8.4706001-2.7524185c-0.9174194-2.8238297-1.8363037-5.6471863-2.7526169-8.4713783	l-8.4707909,2.7531967L52.773716,44.1779785" class="st7"/></svg>