<svg xmlns="http://www.w3.org/2000/svg" xmlns:xlink="http://www.w3.org/1999/xlink" id="Layer_1" x="0" y="0" version="1.1" viewBox="0 0 100 100" xml:space="preserve" style="enable-background:new 0 0 100 100"><style type="text/css">.st0{fill:#5b9500}.st1{fill:#12935d}.st2{fill:#6bbd8b}.st3{fill:#049fa4}.st4{fill:#3bb5f0}.st5{fill:#78c8ff}.st6{fill:#3eb8ff}.st7{fill:#184223}.st8{fill:#022906}.st9{fill:#076e5e}.st10{fill:#0a413c}.st11{fill:#c2d400}.st12{fill:#8b9504}.st13{fill:#0096e5}.st14{fill:#008eda}.st15{fill:#136050}.st16{fill:#7bbc00}.st17{fill:#95bb00}.st18{fill:#3a9b92}.st19{fill:#00867e}</style><g><polygon points="62.5 62.5 75 75 75 62.5" class="st0"/><rect width="12.5" height="12.5" x="62.5" y="25.1" class="st1"/><polygon points="62.5 25.1 75 25.1 75 37.5" class="st2"/><rect width="12.5" height="12.5" x="50" y="25" class="st3"/><polygon points="50 37.5 50 25.1 62.5 25.1" class="st4"/><rect width="12.5" height="12.5" x="37.5" y="25" class="st5"/><polygon points="50 37.5 37.5 37.5 37.5 25.1" class="st6"/><rect width="12.5" height="12.5" x="62.4" y="37.5" class="st7"/><polygon points="75 37.5 75 50 62.5 50" class="st8"/><rect width="12.5" height="12.5" x="49.9" y="37.5" class="st9"/><polygon points="62.5 50 50 50 50 37.5" class="st10"/><rect width="12.5" height="12.5" x="62.5" y="50" class="st11"/><polygon points="62.5 50 75 50 75 62.5" class="st12"/><g><polygon points="37.5 37.5 37.5 37.5 37.5 25.1 31.3 31.3" class="st13"/><polygon points="37.5 25.1 25 25.1 31.3 31.3" class="st14"/><polygon points="62.5 50 50 50 56.2 56.2" class="st15"/><polygon points="62.5 62.5 62.5 50 56.2 56.2" class="st16"/><polygon points="75 62.5 62.5 62.5 68.7 68.7" class="st17"/><polygon points="43.7 43.7 50 37.5 37.5 37.5 37.5 37.5" class="st18"/><polygon points="50 49.9 50 37.5 43.7 43.7" class="st19"/></g></g></svg>