<svg xmlns="http://www.w3.org/2000/svg" xmlns:xlink="http://www.w3.org/1999/xlink" id="Layer_1" x="0" y="0" version="1.1" viewBox="0 0 124.742 124.742" xml:space="preserve" style="enable-background:new 0 0 124.7417984 124.7417984"><style type="text/css">.st0{fill:#fbf9de}.st1{fill:#00558b}.st2{fill:#3d98d3}.st3{fill:#0075a8}.st4{fill:#eadf5a}</style><g><polygon points="62.371 9.747 72.249 0 78.632 12.323 91.04 6.105 93.302 19.797 107.024 17.718 104.944 31.44 118.636 33.702 112.419 46.109 124.742 52.492 114.995 62.371 124.742 72.249 112.419 78.632 118.636 91.04 104.944 93.302 107.024 107.024 93.302 104.944 91.04 118.636 78.632 112.419 72.249 124.742 62.371 114.995 52.492 124.742 46.109 112.419 33.702 118.636 31.44 104.944 17.718 107.024 19.797 93.302 6.105 91.04 12.323 78.632 0 72.249 9.747 62.371 0 52.492 12.323 46.109 6.105 33.702 19.797 31.44 17.718 17.718 31.44 19.797 33.702 6.105 46.109 12.323 52.492 0" class="st0"/><g><path d="M52.8595123,89.7845383H28.905056c-6.0499992,0-11-4.9499969-11-11v-32.827282 c0-6.0499992,4.9500008-11,11-11h23.9544563c6.0499992,0,11,4.9500008,11,11v32.827282 C63.8595123,84.8345413,58.9095116,89.7845383,52.8595123,89.7845383z" class="st1"/><path d="M95.8367386,89.7845383H51.8822861c-6.0500031,0-11-4.9499969-11-11v-32.827282 c0-6.0499992,4.9499969-11,11-11h43.9544525c6.0500031,0,11,4.9500008,11,11v32.827282 C106.8367386,84.8345413,101.8867416,89.7845383,95.8367386,89.7845383z" class="st2"/><path d="M51.8824387,84.7846985c-3.3085938,0-6-2.6914062-6-6V45.9567986c0-3.3085938,2.6914062-6,6-6h43.9541016 c3.3085938,0,6,2.6914062,6,6v32.8278999c0,3.3085938-2.6914062,6-6,6H51.8824387z" class="st3"/><rect width="4.74" height="5.977" x="56.501" y="49.338" class="st4" transform="matrix(-1.836970e-16 1 -1 -1.836970e-16 111.1973419 -6.5444016)"/><rect width="4.74" height="5.977" x="56.501" y="59.382" class="st4" transform="matrix(-1.836970e-16 1 -1 -1.836970e-16 121.2416153 3.499872)"/><rect width="4.74" height="5.977" x="56.501" y="69.426" class="st4" transform="matrix(-1.836970e-16 1 -1 -1.836970e-16 131.2858887 13.5441456)"/><rect width="4.74" height="25.977" x="76.478" y="39.338" class="st4" transform="matrix(-1.836970e-16 1 -1 -1.836970e-16 131.1746368 -26.5216961)"/><rect width="4.74" height="25.977" x="76.478" y="49.382" class="st4" transform="matrix(-1.836970e-16 1 -1 -1.836970e-16 141.2189026 -16.4774227)"/><rect width="4.74" height="25.977" x="76.478" y="59.426" class="st4" transform="matrix(-1.836970e-16 1 -1 -1.836970e-16 151.2631836 -6.4331493)"/></g></g></svg>