<svg xmlns="http://www.w3.org/2000/svg" xmlns:xlink="http://www.w3.org/1999/xlink" id="Layer_1" x="0" y="0" version="1.1" viewBox="0 0 126 125" xml:space="preserve" style="enable-background:new 0 0 126 125"><style type="text/css">.st6{opacity:5.000000e-02;fill:#3498db;enable-background:new}.st20{fill:none;stroke:#3498db;stroke-width:1.2598;stroke-linecap:round;stroke-linejoin:round;stroke-miterlimit:10}</style><g><polygon points="99.2 78.9 99.2 87.4 43 119.9 42.9 111.3" class="st20"/><polygon points="43 119.9 26.8 110.5 26.7 101.9 42.9 111.3" class="st6"/><polygon points="91 74.1 99.2 78.9 42.9 111.3 26.7 101.9 71.1 76.3" class="st20"/><polygon points="67.7 56.1 83 54.2 99.2 63.6 55.5 68.9" class="st6"/><polygon points="99.1 14.5 99.1 23.8 55.5 68.9 99.2 63.6 99.3 72.8 43 79.6 42.9 72.6" class="st20"/><polygon points="43 79.6 26.8 70.2 26.7 63.2 42.9 72.6" class="st6"/><polygon points="42.9 72.6 26.7 63.2 82.9 5.1 99.1 14.5" class="st20"/><polygon points="43 119.9 26.8 110.5 26.7 101.9 42.9 111.3" class="st20"/><polygon points="43 79.6 26.8 70.2 26.7 63.2 42.9 72.6" class="st20"/><polyline points="68 56 83 54.2 99.2 63.6 55.5 68.9" class="st20"/></g></svg>