<svg xmlns="http://www.w3.org/2000/svg" xmlns:xlink="http://www.w3.org/1999/xlink" id="Layer_1" x="0" y="0" version="1.1" viewBox="0 0 126 125" xml:space="preserve" style="enable-background:new 0 0 126 125"><style type="text/css">.st3,.st6{fill:#3498db}.st6{opacity:5.000000e-02}.st19,.st6,.st7{enable-background:new}.st19{clip-path:url(#SVGID_2_)}.st20{fill:none;stroke:#3498db;stroke-width:1.2598;stroke-linecap:round;stroke-linejoin:round;stroke-miterlimit:10}.st21,.st22{enable-background:new}.st21{opacity:5.000000e-02}.st22{clip-path:url(#SVGID_4_)}</style><g><g class="st7"><g><polyline points="84.3 75.8 84.3 93.9 32.7 123.7 32.5 39.3 84.1 9.5 84.2 19.1" class="st20"/></g><g><polygon points="32.7 123.7 18.6 115.5 18.4 31.1 32.5 39.3" class="st6"/></g><g><polygon points="32.5 39.3 18.4 31.1 70 1.3 84.1 9.5" class="st20"/></g></g><g><g class="st7"><g class="st21"><defs><path id="SVGID_3_" d="M80,71.5c1.4,0.8,2.3,2.6,2.3,5.1l-5.3-3.1c0-0.9-0.1-1.7-0.3-2.3" class="st21"/></defs><use xlink:href="#SVGID_3_" style="overflow:visible;fill:#3498db"/><clipPath id="SVGID_2_"><use xlink:href="#SVGID_3_" style="overflow:visible"/></clipPath><g class="st19"><path d="M80,71.5c1.4,0.8,2.3,2.6,2.3,5.1" class="st3"/><path d="M82.3,76.6l-5.3-3.1c0-0.8-0.1-1.6-0.3-2.3" class="st3"/></g></g><path d="M78.9,62.7C79,62.7,79,62.7,78.9,62.7c0.2,0.1,0.4,0.2,0.6,0.3c0,0,0.1,0,0.1,0c0.1,0,0.1,0,0.2,0.1 c0.1,0,0.2,0.1,0.3,0.1c0.1,0,0.2,0,0.3,0.1c0.1,0,0.1,0,0.2,0c0,0,0.1,0,0.1,0c0.2,0,0.4,0.1,0.7,0.1c0,0,0,0,0,0 c0.1,0,0.1,0,0.2,0c0.2,0,0.3,0,0.5,0c0.1,0,0.1,0,0.2,0c0.1,0,0.2,0,0.3,0c0.1,0,0.2,0,0.3,0c0.1,0,0.2,0,0.3-0.1 c0.1,0,0.3-0.1,0.4-0.1c0.1,0,0.2,0,0.2-0.1c0.2-0.1,0.4-0.1,0.6-0.2c0,0,0,0,0,0c0.2-0.1,0.4-0.2,0.7-0.3c0.1,0,0.2-0.1,0.3-0.1 c0.1,0,0.2-0.1,0.3-0.1c0.3-0.2,0.7-0.3,1-0.5c0.4-0.2,0.8-0.5,1.2-0.8c0.1-0.1,0.2-0.1,0.3-0.2c0.4-0.3,0.7-0.5,1-0.8 c0,0,0.1,0,0.1-0.1c0.4-0.3,0.8-0.7,1.1-1c0.4-0.4,0.8-0.8,1.2-1.3c0.1-0.1,0.1-0.2,0.2-0.2c0.1-0.2,0.3-0.3,0.4-0.5 c0.1-0.1,0.2-0.2,0.3-0.3c0.1-0.1,0.1-0.2,0.2-0.3c0.1-0.1,0.2-0.3,0.3-0.4c0.1-0.1,0.1-0.2,0.2-0.3c0.1-0.2,0.2-0.3,0.3-0.5 c0.1-0.1,0.1-0.2,0.2-0.3c0,0,0.1-0.1,0.1-0.1c0.2-0.3,0.4-0.6,0.6-0.9c0,0,0,0,0-0.1c0-0.1,0.1-0.1,0.1-0.2 c0.1-0.2,0.3-0.4,0.4-0.7c0.1-0.1,0.1-0.2,0.2-0.3c0.1-0.1,0.1-0.2,0.2-0.3c0-0.1,0.1-0.2,0.1-0.3c0.1-0.3,0.2-0.5,0.4-0.8 c0,0,0-0.1,0.1-0.1c0,0,0,0,0,0c0.1-0.3,0.3-0.7,0.4-1c0-0.1,0-0.1,0.1-0.2c0-0.1,0.1-0.2,0.1-0.4c0.1-0.2,0.1-0.3,0.2-0.5 c0-0.1,0.1-0.3,0.1-0.4c0-0.2,0.1-0.3,0.1-0.5c0-0.1,0.1-0.2,0.1-0.3c0-0.2,0.1-0.3,0.1-0.5c0-0.2,0.1-0.4,0.1-0.6 c0-0.1,0-0.1,0-0.2c0-0.1,0-0.3,0.1-0.4c0.1-0.3,0.1-0.6,0.2-0.9c0-0.1,0-0.2,0-0.2c0.1-0.7,0.1-1.5,0.1-2.2c0-3.2-1-5.5-2.7-6.8 c-0.2-0.1-0.3-0.2-0.5-0.3" class="st20"/><path d="M91.6,35.2c0.6,1.2,0.9,2.7,0.9,4.6c0,0.8-0.1,1.6-0.2,2.4c0,0.3-0.1,0.6-0.2,0.9c0,0.2-0.1,0.4-0.1,0.6 c0,0.2-0.1,0.4-0.1,0.6c-0.1,0.3-0.1,0.5-0.2,0.8c0,0.2-0.1,0.3-0.1,0.5c-0.1,0.3-0.2,0.6-0.3,0.9c0,0.1-0.1,0.2-0.1,0.4 c-0.2,0.4-0.3,0.8-0.5,1.2c0,0,0,0.1-0.1,0.1c-0.2,0.4-0.3,0.7-0.5,1.1c-0.1,0.1-0.1,0.2-0.2,0.3c-0.2,0.3-0.4,0.7-0.5,1 c0,0.1-0.1,0.1-0.1,0.2c-0.2,0.4-0.5,0.8-0.7,1.1c-0.1,0.1-0.1,0.2-0.2,0.3c-0.2,0.3-0.4,0.5-0.5,0.8c-0.1,0.1-0.2,0.3-0.3,0.4 c-0.2,0.2-0.3,0.4-0.5,0.6c-0.1,0.2-0.3,0.4-0.4,0.5c-0.1,0.2-0.3,0.3-0.4,0.5c-0.3,0.3-0.6,0.6-0.8,0.9 c-0.1,0.1-0.3,0.3-0.4,0.4c-0.1,0.1-0.2,0.2-0.3,0.3c-0.1,0.1-0.3,0.3-0.4,0.4c-0.2,0.2-0.5,0.4-0.7,0.6 c-0.1,0.1-0.2,0.1-0.3,0.2c-0.2,0.1-0.4,0.3-0.6,0.4c-0.1,0.1-0.2,0.1-0.3,0.2c-0.3,0.2-0.6,0.4-0.8,0.5c-0.3,0.2-0.7,0.4-1,0.5 c-0.1,0-0.2,0.1-0.3,0.1c-0.3,0.1-0.6,0.3-1,0.4c0,0,0,0,0,0C79,60,78.7,60,78.5,60.1c-0.2,0-0.3,0.1-0.4,0.1 c-0.2,0-0.4,0.1-0.6,0.1c-0.1,0-0.2,0-0.3,0" class="st20"/><path d="M93.5,26.9C93.6,26.9,93.6,26.9,93.5,26.9c0.2,0.1,0.3,0.2,0.4,0.2c0,0,0.1,0,0.1,0c0,0,0.1,0,0.1,0 c0.1,0,0.1,0.1,0.2,0.1c0.1,0,0.1,0,0.2,0.1c0,0,0.1,0,0.1,0c0,0,0.1,0,0.1,0c0.2,0,0.3,0,0.5,0.1c0,0,0,0,0,0c0,0,0.1,0,0.1,0 c0.1,0,0.3,0,0.4,0c0,0,0.1,0,0.1,0c0.1,0,0.2,0,0.2,0c0.1,0,0.2,0,0.2,0c0.1,0,0.1,0,0.2,0c0.1,0,0.2,0,0.3-0.1 c0.1,0,0.1,0,0.2,0c0.1,0,0.1,0,0.2-0.1c0.2-0.1,0.4-0.1,0.6-0.2c0.1,0,0.1,0,0.2-0.1c0.1,0,0.1-0.1,0.2-0.1 c0.1,0,0.1-0.1,0.2-0.1c0.2-0.1,0.5-0.2,0.7-0.4c0.3-0.2,0.6-0.4,0.9-0.6c0.1-0.1,0.1-0.1,0.2-0.2c0.3-0.2,0.6-0.5,0.9-0.7 c0,0,0.1-0.1,0.1-0.1c0.2-0.1,0.3-0.3,0.5-0.4c0.1-0.1,0.1-0.1,0.2-0.2c0.1-0.1,0.3-0.3,0.4-0.4c0.1-0.1,0.2-0.2,0.3-0.3 c0.1-0.2,0.3-0.3,0.4-0.5l-5.3-3.1c-0.2,0.3-0.4,0.5-0.7,0.8c-0.1,0.2-0.3,0.3-0.4,0.4c-0.2,0.2-0.5,0.5-0.7,0.7 c0,0-0.1,0.1-0.1,0.1c-0.3,0.3-0.6,0.5-0.9,0.7c-0.1,0.1-0.1,0.1-0.2,0.2c-0.3,0.2-0.6,0.4-0.9,0.6c-0.2,0.1-0.5,0.3-0.7,0.4 c-0.1,0-0.1,0.1-0.2,0.1c-0.1,0.1-0.3,0.1-0.4,0.2c-0.2,0.1-0.4,0.1-0.6,0.2c-0.1,0-0.2,0.1-0.4,0.1" class="st6"/><g><polygon points="70.5 75.5 65.2 72.5 60.7 66 66 69.1" class="st20"/></g><path d="M63.9,52.4c0.5,0.9,0.8,2.1,0.8,3.5c0,0.4,0,0.8-0.1,1.2c0,0.1,0,0.1,0,0.2c0,0.4-0.1,0.7-0.2,1.1 c0,0.1,0,0.1,0,0.2c-0.1,0.4-0.2,0.8-0.3,1.2c0,0.1,0,0.2-0.1,0.2c-0.1,0.4-0.3,0.8-0.4,1.1c0,0,0,0.1-0.1,0.1 c-0.2,0.4-0.3,0.8-0.5,1.2c0,0,0,0.1,0,0.1c-0.2,0.4-0.4,0.8-0.6,1.2c0,0,0,0,0,0c-0.2,0.4-0.5,0.7-0.7,1.1c0,0-0.1,0.1-0.1,0.1 c-0.3,0.4-0.5,0.7-0.8,1.1l5.3,3.1c0.1-0.1,0.2-0.2,0.2-0.3c0.2-0.2,0.4-0.5,0.5-0.7c0,0,0-0.1,0.1-0.1c0,0,0.1-0.1,0.1-0.1 c0.1-0.1,0.2-0.3,0.3-0.4c0.1-0.2,0.3-0.4,0.4-0.7c0,0,0,0,0,0c0,0,0,0,0,0c0.1-0.2,0.3-0.4,0.4-0.7c0.1-0.2,0.2-0.4,0.3-0.5 c0,0,0-0.1,0-0.1c0,0,0,0,0,0c0.1-0.2,0.2-0.5,0.3-0.7c0.1-0.2,0.1-0.3,0.2-0.5c0,0,0-0.1,0.1-0.1c0,0,0-0.1,0-0.1 c0.1-0.2,0.2-0.5,0.3-0.7c0-0.1,0.1-0.2,0.1-0.3c0-0.1,0-0.2,0.1-0.2c0-0.1,0.1-0.2,0.1-0.3c0.1-0.3,0.2-0.6,0.2-0.9c0,0,0,0,0,0 c0-0.1,0-0.1,0-0.2c0.1-0.3,0.1-0.6,0.2-0.9c0-0.1,0-0.1,0-0.2c0-0.1,0-0.1,0-0.2c0-0.4,0.1-0.8,0.1-1.2c0-1.6-0.3-2.8-1-3.7 c-0.4-0.6-0.8-1-1.3-1.3" class="st6"/><g><polygon points="82.2 27 76.9 24 86 18.8 91.2 21.8" class="st20"/></g><g><polygon points="65.9 53.3 60.7 50.3 65.1 38.6 70.4 41.7" class="st20"/></g><g><path d="M103.7,39.4c0,3.4,1.6,5.4,4,5.6l-4.5,11.7c-1.2-0.1-2.5,0.3-3.9,1.1c-4.4,2.5-7.9,8.6-7.9,13.6l-9,5.2 c0-5-3.6-7-7.9-4.5c-1.4,0.8-2.8,2-3.9,3.5L66,69.1c2.4-2.9,4-6.8,4-10.2c0-3.4-1.6-5.4-4-5.6l4.5-11.6c1.2,0.1,2.5-0.2,3.9-1.1 c4.4-2.5,7.9-8.7,7.9-13.6l9-5.2c0,4.9,3.6,7,7.9,4.5c1.4-0.8,2.8-2,3.9-3.5l2.3,3.2l2.3,3.2C105.2,32.2,103.6,36.1,103.7,39.4z M86.8,61.9c6.1-3.5,11-12.1,11-19.1c0-3.2-1-5.5-2.7-6.8c-2-1.5-5-1.5-8.4,0.4c-6.1,3.5-11,12.1-11,19.1c0,1.5,0.2,2.8,0.6,3.9 C77.9,63.5,82,64.7,86.8,61.9" class="st20"/></g><path d="M82.2,27C82.2,27,82.2,27,82.2,27L82.2,27L82.2,27L76.9,24c0,0.3,0,0.6,0,0.8c0,0.1,0,0.1,0,0.2 c0,0.2,0,0.4-0.1,0.6c0,0.2-0.1,0.3-0.1,0.5c0,0.2-0.1,0.4-0.1,0.6c0,0,0,0,0,0.1c-0.1,0.3-0.1,0.6-0.2,0.9 c0,0.1-0.1,0.2-0.1,0.3c-0.1,0.2-0.1,0.4-0.2,0.6c0,0.1-0.1,0.2-0.1,0.3c-0.1,0.3-0.2,0.6-0.3,0.9c0,0,0,0.1,0,0.1 c-0.1,0.3-0.2,0.5-0.4,0.8c0,0.1-0.1,0.2-0.1,0.2c-0.1,0.2-0.2,0.5-0.4,0.7c0,0.1-0.1,0.1-0.1,0.2c-0.2,0.3-0.3,0.5-0.5,0.8 c0,0.1-0.1,0.1-0.1,0.2c-0.1,0.2-0.3,0.4-0.4,0.6c-0.1,0.1-0.1,0.2-0.2,0.3c-0.1,0.2-0.2,0.3-0.4,0.5c-0.1,0.1-0.2,0.3-0.3,0.4 c-0.1,0.1-0.2,0.2-0.3,0.4c-0.2,0.2-0.3,0.4-0.5,0.6c-0.1,0.1-0.2,0.2-0.3,0.3c-0.1,0.1-0.2,0.2-0.3,0.2 c-0.1,0.1-0.3,0.3-0.4,0.4c-0.1,0.1-0.2,0.1-0.3,0.2c-0.2,0.1-0.3,0.3-0.5,0.4c-0.1,0.1-0.2,0.1-0.2,0.2 c-0.2,0.2-0.5,0.3-0.7,0.5c-0.2,0.1-0.4,0.2-0.5,0.3c-0.1,0-0.1,0.1-0.2,0.1c-0.1,0.1-0.2,0.1-0.4,0.2c0,0,0,0-0.1,0 c-0.3,0.1-0.6,0.2-0.8,0.3c0,0,0,0-0.1,0c-0.2,0.1-0.4,0.1-0.6,0.1c-0.1,0-0.1,0-0.2,0c-0.1,0-0.3,0-0.4,0c-0.1,0-0.1,0-0.2,0 c-0.1,0-0.2,0-0.3,0c-0.1,0-0.1,0-0.2,0l5.3,3.1c0,0,0.1,0,0.1,0c0,0,0.1,0,0.1,0c0.1,0,0.2,0,0.3,0c0,0,0.1,0,0.1,0 c0,0,0.1,0,0.1,0c0.1,0,0.3,0,0.4,0c0,0,0.1,0,0.1,0c0,0,0,0,0.1,0c0.2,0,0.4-0.1,0.6-0.1c0,0,0,0,0,0c0,0,0,0,0,0 c0.3-0.1,0.5-0.2,0.8-0.3c0,0,0,0,0,0c0,0,0,0,0,0c0.1,0,0.2-0.1,0.4-0.2c0.1,0,0.1-0.1,0.2-0.1c0.2-0.1,0.4-0.2,0.5-0.3 c0.3-0.1,0.5-0.3,0.7-0.5c0.1-0.1,0.2-0.1,0.2-0.2c0.2-0.1,0.3-0.2,0.5-0.4c0.1-0.1,0.2-0.1,0.3-0.2c0.2-0.1,0.3-0.3,0.4-0.4 c0.1-0.1,0.2-0.2,0.3-0.2c0.1,0,0.1-0.1,0.2-0.1c0.1-0.1,0.1-0.1,0.2-0.2c0.2-0.2,0.4-0.4,0.5-0.6c0.1-0.1,0.1-0.1,0.2-0.2 c0-0.1,0.1-0.1,0.1-0.2c0.1-0.1,0.2-0.2,0.3-0.4c0.1-0.1,0.1-0.2,0.2-0.2c0.1-0.1,0.1-0.2,0.2-0.2c0.1-0.1,0.1-0.2,0.2-0.3 c0-0.1,0.1-0.1,0.1-0.2c0.1-0.1,0.2-0.3,0.3-0.4c0-0.1,0.1-0.1,0.1-0.2c0,0,0-0.1,0.1-0.1c0.1-0.2,0.3-0.4,0.4-0.7c0,0,0,0,0-0.1 c0-0.1,0.1-0.1,0.1-0.2c0.1-0.2,0.2-0.3,0.3-0.5c0-0.1,0.1-0.2,0.1-0.2c0-0.1,0.1-0.2,0.1-0.2c0-0.1,0.1-0.1,0.1-0.2 c0.1-0.2,0.2-0.4,0.3-0.6c0,0,0-0.1,0-0.1c0,0,0,0,0,0c0.1-0.2,0.2-0.5,0.3-0.7c0,0,0-0.1,0-0.1c0-0.1,0.1-0.2,0.1-0.3 c0-0.1,0.1-0.2,0.1-0.4c0-0.1,0.1-0.2,0.1-0.3c0-0.1,0.1-0.2,0.1-0.3c0-0.1,0-0.1,0.1-0.2l0,0l0,0l0,0c0.1-0.3,0.2-0.6,0.2-0.9 c0-0.2,0.1-0.4,0.1-0.6c0-0.1,0-0.2,0.1-0.3c0-0.1,0-0.1,0-0.2c0-0.2,0-0.4,0.1-0.6c0,0,0-0.1,0-0.1C82.2,27.6,82.2,27.3,82.2,27 z" class="st6"/><path d="M82.2,27C82.2,27,82.2,27,82.2,27L82.2,27L82.2,27L76.9,24c0,0.3,0,0.6,0,0.8c0,0.1,0,0.1,0,0.2 c0,0.2,0,0.4-0.1,0.6c0,0.2-0.1,0.3-0.1,0.5c0,0.2-0.1,0.4-0.1,0.6c0,0,0,0,0,0.1c-0.1,0.3-0.1,0.6-0.2,0.9 c0,0.1-0.1,0.2-0.1,0.3c-0.1,0.2-0.1,0.4-0.2,0.6c0,0.1-0.1,0.2-0.1,0.3c-0.1,0.3-0.2,0.6-0.3,0.9c0,0,0,0.1,0,0.1 c-0.1,0.3-0.2,0.5-0.4,0.8c0,0.1-0.1,0.2-0.1,0.2c-0.1,0.2-0.2,0.5-0.4,0.7c0,0.1-0.1,0.1-0.1,0.2c-0.2,0.3-0.3,0.5-0.5,0.8 c0,0.1-0.1,0.1-0.1,0.2c-0.1,0.2-0.3,0.4-0.4,0.6c-0.1,0.1-0.1,0.2-0.2,0.3c-0.1,0.2-0.2,0.3-0.4,0.5c-0.1,0.1-0.2,0.3-0.3,0.4 c-0.1,0.1-0.2,0.2-0.3,0.4c-0.2,0.2-0.3,0.4-0.5,0.6c-0.1,0.1-0.2,0.2-0.3,0.3c-0.1,0.1-0.2,0.2-0.3,0.2 c-0.1,0.1-0.3,0.3-0.4,0.4c-0.1,0.1-0.2,0.1-0.3,0.2c-0.2,0.1-0.3,0.3-0.5,0.4c-0.1,0.1-0.2,0.1-0.2,0.2 c-0.2,0.2-0.5,0.3-0.7,0.5c-0.2,0.1-0.4,0.2-0.5,0.3c-0.1,0-0.1,0.1-0.2,0.1c-0.1,0.1-0.2,0.1-0.4,0.2c0,0,0,0-0.1,0 c-0.3,0.1-0.6,0.2-0.8,0.3c0,0,0,0-0.1,0c-0.2,0.1-0.4,0.1-0.6,0.1c-0.1,0-0.1,0-0.2,0c-0.1,0-0.3,0-0.4,0c-0.1,0-0.1,0-0.2,0 c-0.1,0-0.2,0-0.3,0c-0.1,0-0.1,0-0.2,0l5.3,3.1c0,0,0.1,0,0.1,0c0,0,0.1,0,0.1,0c0.1,0,0.2,0,0.3,0c0,0,0.1,0,0.1,0 c0,0,0.1,0,0.1,0c0.1,0,0.3,0,0.4,0c0,0,0.1,0,0.1,0c0,0,0,0,0.1,0c0.2,0,0.4-0.1,0.6-0.1c0,0,0,0,0,0c0,0,0,0,0,0 c0.3-0.1,0.5-0.2,0.8-0.3c0,0,0,0,0,0c0,0,0,0,0,0c0.1,0,0.2-0.1,0.4-0.2c0.1,0,0.1-0.1,0.2-0.1c0.2-0.1,0.4-0.2,0.5-0.3 c0.3-0.1,0.5-0.3,0.7-0.5c0.1-0.1,0.2-0.1,0.2-0.2c0.2-0.1,0.3-0.2,0.5-0.4c0.1-0.1,0.2-0.1,0.3-0.2c0.2-0.1,0.3-0.3,0.4-0.4 c0.1-0.1,0.2-0.2,0.3-0.2c0.1,0,0.1-0.1,0.2-0.1c0.1-0.1,0.1-0.1,0.2-0.2c0.2-0.2,0.4-0.4,0.5-0.6c0.1-0.1,0.1-0.1,0.2-0.2 c0-0.1,0.1-0.1,0.1-0.2c0.1-0.1,0.2-0.2,0.3-0.4c0.1-0.1,0.1-0.2,0.2-0.2c0.1-0.1,0.1-0.2,0.2-0.2c0.1-0.1,0.1-0.2,0.2-0.3 c0-0.1,0.1-0.1,0.1-0.2c0.1-0.1,0.2-0.3,0.3-0.4c0-0.1,0.1-0.1,0.1-0.2c0,0,0-0.1,0.1-0.1c0.1-0.2,0.3-0.4,0.4-0.7c0,0,0,0,0-0.1 c0-0.1,0.1-0.1,0.1-0.2c0.1-0.2,0.2-0.3,0.3-0.5c0-0.1,0.1-0.2,0.1-0.2c0-0.1,0.1-0.2,0.1-0.2c0-0.1,0.1-0.1,0.1-0.2 c0.1-0.2,0.2-0.4,0.3-0.6c0,0,0-0.1,0-0.1c0,0,0,0,0,0c0.1-0.2,0.2-0.5,0.3-0.7c0,0,0-0.1,0-0.1c0-0.1,0.1-0.2,0.1-0.3 c0-0.1,0.1-0.2,0.1-0.4c0-0.1,0.1-0.2,0.1-0.3c0-0.1,0.1-0.2,0.1-0.3c0-0.1,0-0.1,0.1-0.2l0,0l0,0l0,0c0.1-0.3,0.2-0.6,0.2-0.9 c0-0.2,0.1-0.4,0.1-0.6c0-0.1,0-0.2,0.1-0.3c0-0.1,0-0.1,0-0.2c0-0.2,0-0.4,0.1-0.6c0,0,0-0.1,0-0.1C82.2,27.6,82.2,27.3,82.2,27 z" class="st20"/><path d="M63.9,52.4c0.5,0.9,0.8,2.1,0.8,3.5c0,0.4,0,0.8-0.1,1.2c0,0.1,0,0.1,0,0.2c0,0.4-0.1,0.7-0.2,1.1 c0,0.1,0,0.1,0,0.2c-0.1,0.4-0.2,0.8-0.3,1.2c0,0.1,0,0.2-0.1,0.2c-0.1,0.4-0.3,0.8-0.4,1.1c0,0,0,0.1-0.1,0.1 c-0.2,0.4-0.3,0.8-0.5,1.2c0,0,0,0.1,0,0.1c-0.2,0.4-0.4,0.8-0.6,1.2c0,0,0,0,0,0c-0.2,0.4-0.5,0.7-0.7,1.1c0,0-0.1,0.1-0.1,0.1 c-0.3,0.4-0.5,0.7-0.8,1.1l5.3,3.1c0.1-0.1,0.2-0.2,0.2-0.3c0.2-0.2,0.4-0.5,0.5-0.7c0,0,0-0.1,0.1-0.1c0,0,0.1-0.1,0.1-0.1 c0.1-0.1,0.2-0.3,0.3-0.4c0.1-0.2,0.3-0.4,0.4-0.7c0,0,0,0,0,0c0,0,0,0,0,0c0.1-0.2,0.3-0.4,0.4-0.7c0.1-0.2,0.2-0.4,0.3-0.5 c0,0,0-0.1,0-0.1c0,0,0,0,0,0c0.1-0.2,0.2-0.5,0.3-0.7c0.1-0.2,0.1-0.3,0.2-0.5c0,0,0-0.1,0.1-0.1c0,0,0-0.1,0-0.1 c0.1-0.2,0.2-0.5,0.3-0.7c0-0.1,0.1-0.2,0.1-0.3c0-0.1,0-0.2,0.1-0.2c0-0.1,0.1-0.2,0.1-0.3c0.1-0.3,0.2-0.6,0.2-0.9c0,0,0,0,0,0 c0-0.1,0-0.1,0-0.2c0.1-0.3,0.1-0.6,0.2-0.9c0-0.1,0-0.1,0-0.2c0-0.1,0-0.1,0-0.2c0-0.4,0.1-0.8,0.1-1.2c0-1.6-0.3-2.8-1-3.7 c-0.4-0.6-0.8-1-1.3-1.3" class="st20"/><path d="M93.5,26.9C93.6,26.9,93.6,26.9,93.5,26.9c0.2,0.1,0.3,0.2,0.4,0.2c0,0,0.1,0,0.1,0c0,0,0.1,0,0.1,0 c0.1,0,0.1,0.1,0.2,0.1c0.1,0,0.1,0,0.2,0.1c0,0,0.1,0,0.1,0c0,0,0.1,0,0.1,0c0.2,0,0.3,0,0.5,0.1c0,0,0,0,0,0c0,0,0.1,0,0.1,0 c0.1,0,0.3,0,0.4,0c0,0,0.1,0,0.1,0c0.1,0,0.2,0,0.2,0c0.1,0,0.2,0,0.2,0c0.1,0,0.1,0,0.2,0c0.1,0,0.2,0,0.3-0.1 c0.1,0,0.1,0,0.2,0c0.1,0,0.1,0,0.2-0.1c0.2-0.1,0.4-0.1,0.6-0.2c0.1,0,0.1,0,0.2-0.1c0.1,0,0.1-0.1,0.2-0.1 c0.1,0,0.1-0.1,0.2-0.1c0.2-0.1,0.5-0.2,0.7-0.4c0.3-0.2,0.6-0.4,0.9-0.6c0.1-0.1,0.1-0.1,0.2-0.2c0.3-0.2,0.6-0.5,0.9-0.7 c0,0,0.1-0.1,0.1-0.1c0.2-0.1,0.3-0.3,0.5-0.4c0.1-0.1,0.1-0.1,0.2-0.2c0.1-0.1,0.3-0.3,0.4-0.4c0.1-0.1,0.2-0.2,0.3-0.3 c0.1-0.2,0.3-0.3,0.4-0.5l-5.3-3.1c-0.2,0.3-0.4,0.5-0.7,0.8c-0.1,0.2-0.3,0.3-0.4,0.4c-0.2,0.2-0.5,0.5-0.7,0.7 c0,0-0.1,0.1-0.1,0.1c-0.3,0.3-0.6,0.5-0.9,0.7c-0.1,0.1-0.1,0.1-0.2,0.2c-0.3,0.2-0.6,0.4-0.9,0.6c-0.2,0.1-0.5,0.3-0.7,0.4 c-0.1,0-0.1,0.1-0.2,0.1c-0.1,0.1-0.3,0.1-0.4,0.2c-0.2,0.1-0.4,0.1-0.6,0.2c-0.1,0-0.2,0.1-0.4,0.1" class="st20"/><g class="st7"><defs><path id="SVGID_5_" d="M80,71.5c1.4,0.8,2.3,2.6,2.3,5.1l-5.3-3.1c0-0.9-0.1-1.7-0.3-2.3" class="st7"/></defs><clipPath id="SVGID_4_"><use xlink:href="#SVGID_5_" style="overflow:visible"/></clipPath><g class="st22"><path d="M80,71.5c1.4,0.8,2.3,2.6,2.3,5.1" class="st20"/><path d="M82.3,76.6l-5.3-3.1c0-0.8-0.1-1.6-0.3-2.3" class="st20"/></g><use xlink:href="#SVGID_5_" style="overflow:visible;fill:none;stroke:#3498db;stroke-width:1.2598;stroke-linecap:round;stroke-linejoin:round;stroke-miterlimit:10"/></g></g></g><line x1="84.2" x2="84.2" y1="38.5" y2="56.9" class="st20"/><g><polygon points="32.7 123.7 18.6 115.5 18.4 31.1 32.5 39.3" class="st20"/></g><path d="M77.6,60.3c0.1,0,0.2,0,0.3,0c0.2,0,0.4-0.1,0.6-0.1c0.1,0,0.3-0.1,0.4-0.1c0.3-0.1,0.5-0.1,0.8-0.2 c0,0,0,0,0,0c0.3-0.1,0.6-0.2,0.9-0.4c0.1,0,0.2-0.1,0.3-0.1c0.3-0.2,0.7-0.3,1-0.5c0.3-0.2,0.6-0.3,0.8-0.5 c0.1-0.1,0.2-0.1,0.3-0.2c0.2-0.1,0.4-0.3,0.6-0.4c0.1-0.1,0.2-0.1,0.3-0.2c0.2-0.2,0.5-0.4,0.7-0.6c0.1-0.1,0.3-0.3,0.4-0.4 c0.1-0.1,0.2-0.2,0.3-0.3c0.1-0.1,0.3-0.3,0.4-0.4c0.3-0.3,0.6-0.6,0.8-0.9c0.1-0.1,0.3-0.3,0.4-0.5c0.1-0.2,0.3-0.3,0.4-0.5 c0.2-0.2,0.3-0.4,0.5-0.6c0.1-0.1,0.2-0.3,0.3-0.4c0.2-0.3,0.4-0.5,0.5-0.8c0.1-0.1,0.1-0.2,0.2-0.3c0.2-0.4,0.5-0.7,0.7-1.1 c0-0.1,0.1-0.1,0.1-0.2c0.2-0.3,0.4-0.6,0.5-1c0.1-0.1,0.1-0.2,0.2-0.3c0.2-0.3,0.3-0.7,0.5-1c0,0,0-0.1,0.1-0.1 c0.2-0.4,0.3-0.8,0.5-1.2c0-0.1,0.1-0.2,0.1-0.4c0.1-0.3,0.2-0.6,0.3-0.9c0-0.1,0.1-0.3,0.1-0.4c0.1-0.3,0.1-0.5,0.2-0.8 c0-0.2,0.1-0.4,0.1-0.6c0-0.2,0.1-0.4,0.1-0.6c0.1-0.3,0.1-0.6,0.1-0.9c0.1-0.8,0.2-1.6,0.2-2.4c0-1.8,0-3.5-0.9-4.5 c-0.8-0.9,5.3-0.1,5.9,5.6c0.6,5.7-2.3,12.1-5,15.4s-7.8,8.7-13.3,5.9C77.4,61.5,77.6,60.3,77.6,60.3z" class="st6"/></g></svg>