<svg xmlns="http://www.w3.org/2000/svg" id="Layer_1" data-name="Layer 1" viewBox="0 0 152 166.54"><defs><style>.cls-1,.cls-2,.cls-3{fill:none;stroke:#29abe2;stroke-linecap:round;stroke-linejoin:round}.cls-1{stroke-width:2px}.cls-2{stroke-width:1.5px}.cls-3{stroke-width:.5px}.cls-4{isolation:isolate}</style></defs><title>help</title><path d="M68.12,159.81L13.73,128.35c-5-2.86-9-9.8-8.95-15.49s4-8,9-5.13l54.49,31.46" class="cls-1"/><line x1="68.28" x2="149.12" y1="139.19" y2="92.21" class="cls-1"/><polyline points="68.12 159.81 149.09 112.83 149.08 110.69" class="cls-1"/><polyline points="68.32 142.79 149.12 95.94 149.12 92.21" class="cls-2"/><line x1="68.31" x2="146.47" y1="144.86" y2="99.28" class="cls-3"/><line x1="68.3" x2="146.17" y1="146.72" y2="101.35" class="cls-3"/><line x1="68.29" x2="146.03" y1="148.45" y2="103.21" class="cls-3"/><line x1="68.28" x2="146.09" y1="150.17" y2="104.94" class="cls-3"/><line x1="68.28" x2="146.09" y1="151.85" y2="106.66" class="cls-3"/><line x1="68.26" x2="146.58" y1="153.73" y2="108.34" class="cls-3"/><line x1="68.24" x2="147.29" y1="155.94" y2="110.22" class="cls-2"/><line x1="10.81" x2="68.26" y1="111.51" y2="145.02" class="cls-3"/><line x1="10.82" x2="68.27" y1="113.42" y2="146.9" class="cls-3"/><line x1="10.83" x2="68.28" y1="115.3" y2="148.75" class="cls-3"/><line x1="10.85" x2="68.3" y1="117.15" y2="150.49" class="cls-3"/><line x1="10.86" x2="68.31" y1="118.89" y2="152.19" class="cls-3"/><line x1="10.87" x2="68.32" y1="120.6" y2="153.86" class="cls-3"/><polyline points="68.33 155.94 10.88 122.71 10.8 109.24 68.26 142.79" class="cls-2"/><line x1="149.11" x2="146.83" y1="110.22" y2="108.9" class="cls-1"/><line x1="67.86" x2="68.12" y1="139.19" y2="159.81" class="cls-1"/><path d="M146.34,98a16.33,16.33,0,0,0-.48,3.9,27.94,27.94,0,0,0,1.46,8" class="cls-1"/><path d="M11.27,31.31C4.72,36.38,5.4,43.59,13.32,48.19c8.7,5.06,22.85,5.06,31.61,0s8.82-13.26.11-18.31c-5.8-3.37-14-4.49-21.46-3.37" class="cls-1"/><path d="M30.26,93.07c-6,.17-12.17-1.09-16.77-3.76C9.15,86.79,7,83.49,7,80.18c0-.07,0,0.07,0,0L6.82,39" class="cls-1"/><path d="M51.35,39l0.18,41.22v1" class="cls-1"/><g class="cls-4"><line x1="19.52" x2="11.27" y1="50.73" y2="16.93" class="cls-2"/><line x1="7.87" x2="16.37" y1="13.54" y2="49.67" class="cls-2"/><line x1="28.41" x2="18.76" y1="51.98" y2="10.98" class="cls-2"/><line x1="16.55" x2="25.31" y1="15.69" y2="51.57" class="cls-2"/></g><path d="M7.59,5c-1.8,1.69-1.35,3.64,1,4.36A8.5,8.5,0,0,0,16.1,7.62c1.79-1.69,1.35-3.64-1-4.35A8.5,8.5,0,0,0,7.59,5Z" class="cls-1"/><path d="M17.25,5.5l1.66,7a2.74,2.74,0,0,1-1.05,2.54,8.5,8.5,0,0,1-7.51,1.77A2.7,2.7,0,0,1,8.28,15L6.63,8" class="cls-1"/><path d="M94.63,60.75l-0.29-.16L94,60.4l-0.24-.11-0.06,0-0.07,0-0.36-.15-0.36-.14-0.06,0-0.05,0-0.25-.08-0.37-.1-0.18,0-0.08,0-0.11,0-0.39-.06-0.24,0H90.11l-0.52.08h0l-0.11,0a4.55,4.55,0,0,0-.51.14l-0.06,0-0.08,0a4.3,4.3,0,0,0-.59.28L7.4,107.1A4.3,4.3,0,0,1,8,106.82l0.08,0a4.53,4.53,0,0,1,.57-0.16l0.11,0a5,5,0,0,1,.67-0.08H9.56a5.68,5.68,0,0,1,.68,0h0.08a6.65,6.65,0,0,1,.74.11l0.08,0a7.89,7.89,0,0,1,.79.22l0.05,0q0.42,0.14.85,0.34l0.06,0c0.29,0.14.59,0.29,0.89,0.46l54.49,31.46,80.84-47Z" class="cls-1"/><line x1="51.54" x2="145.86" y1="50.42" y2="50.42" class="cls-1"/><path d="M7.81,106.9a75.2,75.2,0,0,1,.06-62.66" class="cls-1"/><path d="M136.12,120.48a74.94,74.94,0,0,1-51.3,29.64" class="cls-1"/><path d="M22.43,23.14A75,75,0,0,1,149.16,92.22" class="cls-1"/></svg>