<svg xmlns="http://www.w3.org/2000/svg" xmlns:xlink="http://www.w3.org/1999/xlink" id="Layer_1" x="0" y="0" version="1.1" viewBox="0 0 151.5 123.2" xml:space="preserve" style="enable-background:new 0 0 151.5 123.2"><style type="text/css">.st0{stroke-width:.75}.st0,.st1{fill:none;stroke:#3498db;stroke-linecap:round;stroke-linejoin:round}.st2{fill:#3498db}.st3,.st4{fill:none;stroke:#3498db;stroke-width:.5;stroke-linecap:round;stroke-linejoin:round}.st4{fill:#fff}.st5{opacity:.1;fill:#3498db;enable-background:new}.st6{clip-path:url(#SVGID_2_)}.st7{clip-path:url(#SVGID_4_)}.st8{clip-path:url(#SVGID_6_)}.st9{fill:none;stroke:#3498db;stroke-width:.25;stroke-linecap:round;stroke-linejoin:round}</style><title>welcome-scene</title><path d="M141.4,71.7c0.2,0,0.5-0.1,0.6-0.3c0.1,0.4,0.6,0.6,1,0.4c0.2-0.1,0.3-0.2,0.4-0.3c0.1,0.1,0.3,0.2,0.4,0.2	c0.4,0,0.8-0.3,0.8-0.7c0.2-0.3,0.5-0.4,0.8-0.3c0.1,0,0.1,0.1,0.2,0.1c0.4,0,0.8-0.3,0.8-0.7c0,0,0,0,0,0c0,0,0-0.1,0-0.1	c0.3-0.1,0.5-0.3,0.6-0.7" class="st0"/><path d="M137.4,70.6c-0.2,0-0.5,0.1-0.6,0.3c-0.1-0.4-0.6-0.6-1-0.4c-0.2,0.1-0.3,0.2-0.4,0.3c-0.1-0.1-0.3-0.2-0.4-0.2	c-0.4,0-0.8,0.3-0.8,0.7" class="st0"/><path d="M135.9,66.1c-0.1,0-0.1,0-0.2-0.1c-0.1,0.1-0.1,0.2-0.2,0.4c0,0,0,0.1,0,0.1h-0.1c-0.2,0.3-0.6,0.5-1,0.3	c0,0-0.1-0.1-0.1-0.1c-0.1,0-0.3,0-0.4,0.1c-0.3-0.3-0.7-0.3-1,0c0,0,0,0-0.1,0.1c-0.4,0-0.8,0.3-0.8,0.7c0,0,0,0,0,0	c0,0.3,0.1,0.5,0.3,0.6c-0.1,0.1-0.1,0.2-0.1,0.3c0,0.1,0,0.2,0.1,0.3c-0.3,0.1-0.6,0.3-0.6,0.7c0,0.1,0,0.2,0,0.2	c-0.1-0.1-0.2-0.1-0.4-0.2c-0.5,0.5-0.5,1.2,0,1.7c0.1,0.1,0.3,0.2,0.5,0.3l0,0c0,0.4,0.3,0.8,0.7,0.8c0,0,0,0,0,0	c0.1,0,0.2,0,0.4-0.1c0,0.1,0,0.2,0,0.3c-0.1,0.1-0.2,0.3-0.2,0.5c0,0.4,0.3,0.8,0.7,0.8c0,0,0,0,0,0c0.3,0,0.5-0.1,0.7-0.3	c0.3,0.3,0.7,0.3,1,0c0,0,0,0,0.1-0.1c0.1,0.4,0.6,0.6,1,0.4c0.2-0.1,0.3-0.2,0.4-0.3c0.1,0.1,0.2,0.2,0.4,0.2l0,0	c0,0.4,0.3,0.8,0.7,0.8c0.4,0,0.7-0.2,0.7-0.6h0.1c0.2,0.4,0.6,0.6,1,0.4c0.3-0.1,0.4-0.4,0.5-0.6c0,0,0-0.1,0-0.1	c0.1,0.2,0.3,0.3,0.6,0.3c0.4,0,0.8-0.3,0.8-0.7c0,0,0,0,0,0c0,0,0-0.1,0-0.1l0.2-0.1c0.1,0.3,0.4,0.5,0.7,0.5c0.2,0,0.4,0,0.5-0.2	c0.1,0,0.3,0,0.4,0h0.1c0,0.4,0.3,0.7,0.7,0.8c0.2,0,0.3,0,0.4-0.1c0.1,0.2,0.2,0.3,0.3,0.4c0.3,0.2,0.8,0.1,1-0.3	c0.3-0.2,0.7-0.2,0.9,0.1c0.1,0.1,0.1,0.2,0.1,0.2c0.4,0.2,0.8,0.1,1-0.3c0-0.1,0-0.1,0-0.2c0.3-0.1,0.5-0.3,0.5-0.6	c0.4-0.2,0.9-0.3,1.3-0.2c0.2-0.1,0.4-0.3,0.5-0.5c0.4-0.1,0.6-0.5,0.5-0.9c0,0,0,0,0,0c-0.1-0.2-0.3-0.4-0.5-0.5	c0.1-0.2,0-0.5-0.2-0.7c0.3-0.2,0.4-0.5,0.3-0.8c0-0.1-0.1-0.1-0.1-0.2c0.1,0,0.3,0,0.4,0c0.3-0.6,0-1.3-0.7-1.6	c-0.1-0.1-0.3-0.1-0.4-0.1l0,0c-0.6-0.2-1.2-0.7-1.6-1.2c-0.1-0.3-0.4-0.5-0.7-0.5c-0.4,0-0.7,0.2-0.8,0.6c-0.1,0-0.1,0-0.2-0.1	c-0.4,0-0.8,0.3-0.8,0.7c0,0,0,0,0,0l0,0l0,0c-0.4-0.2-0.8-0.4-1.1-0.8c0,0,0-0.1,0-0.2c-0.3-0.1-0.5-0.4-0.5-0.7l0,0h-0.1	c-0.1,0-0.2-0.1-0.3-0.1H143c0.1,0.1,0.1,0.2,0.1,0.3c-0.1,0.4-0.4,0.6-0.8,0.5h-0.1c-0.1,0.3-0.4,0.6-0.8,0.5	c-0.3-0.1-0.5-0.3-0.5-0.7h-0.1c-0.1,0-0.3-0.1-0.4-0.2c-0.2,0.1-0.5,0.1-0.7-0.2" class="st0"/><path d="M146,65.9c0.2-0.1,0.3-0.2,0.3-0.4c0-0.1,0-0.2,0-0.3c0.4,0,0.7-0.2,0.7-0.6c0-0.3-0.2-0.6-0.5-0.7	c-0.1,0-0.1,0-0.2,0c-0.1-0.3-0.3-0.4-0.5-0.5c-0.3,0.1-0.7-0.1-0.8-0.5c0,0,0-0.1,0-0.1c-0.2,0-0.4,0-0.6,0.2	c-0.1-0.3-0.5-0.5-0.8-0.4c-0.1,0-0.3,0.1-0.3,0.2c-0.1-0.1-0.2-0.2-0.3-0.2l0,0c0.1-0.4-0.2-0.7-0.5-0.8c-0.3-0.1-0.6,0.2-0.7,0.5	h-0.1c-0.1-0.3-0.5-0.5-0.8-0.4c-0.2,0.1-0.4,0.3-0.5,0.5c0,0,0,0.1,0,0.1c-0.1-0.2-0.3-0.3-0.5-0.3c-0.4-0.1-0.7,0.2-0.8,0.5	c0,0,0,0.1,0,0.1l-0.1,0.1c-0.1-0.4-0.4-0.6-0.8-0.5c-0.2,0-0.3,0.1-0.4,0.2c-0.1-0.1-0.2-0.2-0.4-0.2c-0.4-0.1-0.7,0.2-0.8,0.5	c0,0.1,0,0.2,0,0.3c-0.2,0.1-0.4,0.3-0.4,0.5c0,0,0,0.1,0,0.1h-0.1c-0.1,0.3-0.5,0.5-0.8,0.4c-0.1,0-0.2-0.1-0.3-0.2	c-0.3-0.1-0.6,0.1-0.7,0.4c-0.1,0-0.1,0-0.2-0.1c-0.4,0-0.7,0.2-0.7,0.6c0,0.3,0.2,0.7,0.5,0.7c0.1,0,0.3,0,0.4-0.1	c0,0.4,0.3,0.7,0.6,0.7c0.2,0,0.4-0.1,0.6-0.3c0.1,0.1,0.1,0.1,0.2,0.2c0.1-0.2,0.1-0.5,0.2-0.7c0.1,0,0.2,0,0.3,0" class="st0"/><path d="M147.3,77l-1.2,5.5c-0.3,1.4-2.4,2.7-5.3,2.7s-5-1.2-5.3-2.7l-1.2-5.5" class="st1"/><g><polyline points="100.7 99.3 124.1 85.7 137.7 93.5 114.3 107.2" class="st1"/><polygon points="137.7 93.5 137.7 95.2 114.3 108.8 114.3 107.2" class="st1"/><polyline points="106 102.4 114.3 107.2 114.3 108.8 105.1 103.5" class="st1"/><polyline points="100.7 100.3 100.7 99.3 103.3 100.8" class="st1"/></g><path d="M119.3,96.7L119.3,96.7L119.3,96.7z" class="st2"/><path d="M123.3,94.6L123.3,94.6L123.3,94.6L123.3,94.6L123.3,94.6z" class="st2"/><g><line x1="89.3" x2="89.3" y1="103" y2="106.3" class="st3"/><line x1="90.3" x2="90.2" y1="103.1" y2="106.5" class="st3"/></g><g><line x1="83.9" x2="77.9" y1="117.2" y2="116.8" class="st3"/><polyline points="90.8 114.7 90.8 117.7 88.7 117.6" class="st3"/><polyline points="73.4 116.5 72.5 116.4 72.2 113.4" class="st3"/><polygon points="90.8 115 91.5 114.7 91.5 117.4 90.8 117.7" class="st4"/><polyline points="73.4 113.5 72.2 113.4 72.9 113 73.4 113.1" class="st3"/></g><g><polyline points="98.7 117.9 95.2 117.5 95.2 112.5" class="st3"/><line x1="98.8" x2="98.7" y1="103.4" y2="107.5" class="st3"/><line x1="95.2" x2="95.3" y1="107.2" y2="103.4" class="st3"/><line x1="99.7" x2="99.7" y1="103.6" y2="107.5" class="st3"/><polyline points="99.7 112.6 99.7 116.7 98.7 117.9 98.7 112.5" class="st3"/></g><g><polyline points="100.6 109.5 100.6 112.6 95.7 112.2" class="st3"/><polygon points="100.6 109.5 101.3 109.1 101.3 112.1 100.6 112.6" class="st3"/></g><g><path d="M86.9,100.1l17.6,0.9c1,0.1,1.3,0.4,0.5,0.8c-1,0.4-2,0.7-3.1,0.6l-14.7-0.8" class="st3"/><g><path d="M87.5,102.9l14.6,0.8c1.1,0,2.1-0.2,3.1-0.6c0.2-0.1,0.4-0.2,0.4-0.4l-0.2-1.3c0,0.2-0.2,0.4-0.4,0.4 c-1,0.4-2,0.7-3.1,0.6l-14.6-0.8" class="st4"/><g><polyline points="105.5 101.3 105.7 102.7 105.7 102.7 105.5 101.3 105.5 101.3" class="st4"/><path d="M105.5,101.3l0.2,1.3l0,0L105.5,101.3L105.5,101.3" class="st4"/></g></g></g><polygon points="72.8 86.3 22.6 57.3 22.6 36.7 0 49 72.1 91" class="st5"/><polyline points="132.1 74.2 125 78.5 124.7 40.6 141.5 31 141.2 61.3" class="st1"/><polyline points="139.1 62.2 139.1 35.9 128.1 42.3 128.3 73.6 131.2 71.8" class="st1"/><line x1="125.1" x2="125.2" y1="40.6" y2="78.5" class="st1"/><polyline points="122.2 39 138.5 29.3 141.5 31" class="st1"/><polygon points="124.8 40.8 124.9 78.7 91.9 97.7 91.8 59.8" class="st1"/><polyline points="71.5 85.8 23 57.5 22.9 19.6 91.8 59.8 91.9 97.7" class="st1"/><polygon points="91.8 59.8 22.9 19.5 55.8 .5 124.8 40.8" class="st1"/><line x1="91.8" x2="124.1" y1="60" y2="78.8" class="st1"/><path d="M28.3,29l54.8,32l-11.5,6.7v11.8L28.4,54.4L28.3,29 M28.3,28c-0.6,0-1,0.4-1,1l0.1,25.4c0,0.4,0.2,0.7,0.5,0.9	l43.2,25.2c0.2,0.1,0.3,0.1,0.5,0.1c0.2,0,0.3,0,0.5-0.1c0.3-0.2,0.5-0.5,0.5-0.9V68.3l11-6.4c0.3-0.2,0.5-0.5,0.5-0.9	c0-0.4-0.2-0.7-0.5-0.9l-54.8-32C28.7,28.1,28.5,28,28.3,28L28.3,28z" class="st2"/><polyline points="78.7 63.8 78.7 58.3 81.3 60 81.3 62.6" class="st1"/><line x1="75.8" x2="75.9" y1="65.5" y2="56.3" class="st1"/><polygon points="70.8 53.9 70.7 77.4 68.1 78.1 68.2 52.3" class="st1"/><polyline points="68.1 78.1 65.3 76.4 65.3 50.2" class="st1"/><polygon points="60.1 47.8 60.1 71.3 57.5 71.9 57.6 46.1" class="st1"/><polyline points="57.5 71.9 54.6 70.3 54.7 44.1" class="st1"/><line x1="65.2" x2="60.3" y1="74" y2="71.1" class="st1"/><polygon points="49.6 41.8 49.5 65.2 47 65.9 47 40.1" class="st1"/><polyline points="47 65.9 44.1 64.2 44.2 38.1" class="st1"/><line x1="54.7" x2="49.7" y1="68" y2="65.1" class="st1"/><polygon points="39.2 35.6 39.1 59.1 36.5 59.8 36.6 33.9" class="st1"/><polyline points="36.3 59.5 33.4 57.8 33.5 31.7" class="st1"/><line x1="44" x2="39" y1="61.5" y2="58.7" class="st1"/><polyline points="33.3 55.3 30.1 53.2 30.1 30.2" class="st1"/><polyline points="75.1 85.3 75.1 69.7 91.4 60.1 91.5 98 88 100.1" class="st1"/><polyline points="86.9 97.4 88.7 96.4 88.6 65 77.9 71.3 77.9 85" class="st1"/><polyline points="72.1 88.2 72.1 68.1 88.5 58.4 91.3 60.5" class="st1"/><line x1="75.1" x2="72.2" y1="69.7" y2="68.1" class="st1"/><line x1="30" x2="28" y1="53.2" y2="54.2" class="st1"/><path d="M86.3,106.3l-4.1-20.5c1.8-0.7,3.4,0,3.5,1.4c0.5,6.6,0.7,13.2,2.5,19.2" class="st3"/><g><g><defs><path id="SVGID_1_" d="M82.9,85.5h0.9c-0.5,0-1,0.1-1.5,0.3h-0.9C81.9,85.5,82.4,85.5,82.9,85.5z"/></defs><clipPath id="SVGID_2_"><use xlink:href="#SVGID_1_" style="overflow:visible"/></clipPath><g class="st6"><path d="M82.3,85.8h-0.9l0.4-0.1h0.9L82.3,85.8" class="st3"/><path d="M82.7,85.6h-0.9c0.4-0.1,0.7-0.2,1.1-0.1h0.9C83.4,85.5,83.1,85.5,82.7,85.6" class="st3"/></g></g><path d="M82.9,85.5h0.9c-0.5,0-1,0.1-1.5,0.3h-0.9C81.9,85.5,82.4,85.5,82.9,85.5z" class="st3"/></g><polyline points="85.5 106.3 81.4 85.7 82.3 85.8 86.3 106.3" class="st3"/><polyline points="82.6 106.1 76.8 85.4 77.7 85.5 83.4 106.2" class="st3"/><g><g><defs><path id="SVGID_3_" d="M78.6,85h0.9c-0.6,0-1.2,0.1-1.8,0.4h-0.9C77.4,85.1,78,85,78.6,85z"/></defs><clipPath id="SVGID_4_"><use xlink:href="#SVGID_3_" style="overflow:visible"/></clipPath><g class="st7"><path d="M77.7,85.5h-0.9c0.2-0.1,0.5-0.2,0.7-0.3h0.9C78.2,85.3,77.9,85.3,77.7,85.5" class="st3"/><path d="M78.4,85.2h-0.9c0.3-0.1,0.7-0.1,1-0.1h0.9C79.1,85,78.8,85.1,78.4,85.2" class="st3"/></g></g><path d="M78.6,85h0.9c-0.6,0-1.2,0.1-1.8,0.4h-0.9C77.4,85.1,78,85,78.6,85z" class="st3"/></g><path d="M83.4,106.2l-5.7-20.7c1.8-0.9,3.5-0.3,3.7,1.2c1,6.6,2.3,13.1,4,19.6" class="st3"/><g><g><defs><path id="SVGID_5_" d="M74.9,85.3h0.9c-0.4,0-0.7,0.1-1,0.3h-0.9C74.3,85.4,74.6,85.3,74.9,85.3z"/></defs><clipPath id="SVGID_6_"><use xlink:href="#SVGID_5_" style="overflow:visible"/></clipPath><g class="st8"><path d="M74.8,85.6h-0.9c0.2-0.1,0.3-0.2,0.5-0.2h0.9C75.1,85.4,75,85.5,74.8,85.6" class="st3"/><path d="M75.3,85.4h-0.9c0.2,0,0.3-0.1,0.5-0.1h0.9C75.6,85.3,75.5,85.3,75.3,85.4" class="st3"/></g></g><path d="M74.9,85.3h0.9c-0.4,0-0.7,0.1-1,0.3h-0.9C74.3,85.4,74.6,85.3,74.9,85.3z" class="st3"/></g><path d="M80.4,106c-2.1-6-4.2-11.6-6.7-18.2c-0.2-0.9,0.3-1.8,1.1-2.2c0.9-0.5,1.8-0.3,2,0.4c2,7.2,3.8,13.7,5.8,20.1" class="st3"/><path d="M79.4,105.8c-2.1-6-4.2-11.5-6.6-18c0-0.1-0.1-0.2-0.1-0.3h0.9c0,0.1,0,0.2,0.1,0.3" class="st3"/><path d="M73.6,87.5h-0.9c0-0.1,0-0.2,0-0.2h0.9C73.6,87.3,73.6,87.4,73.6,87.5" class="st3"/><path d="M81.7,109.9l-0.3-0.9" class="st3"/><path d="M80.4,106c-2.1-5.9-4.3-11.8-6.7-18.2c-0.1-0.2-0.1-0.4-0.1-0.6c0,0,0-0.1,0-0.1c0-0.1,0-0.1,0-0.2	c0-0.1,0.1-0.2,0.1-0.3l0.1-0.2l0.1-0.1l0.1-0.2l0.1-0.1l0.2-0.2l0.1-0.1c0.1-0.1,0.2-0.1,0.3-0.2h-0.9c-0.1,0.1-0.2,0.1-0.3,0.2	l-0.1,0.1L73.3,86l-0.1,0.1l-0.1,0.2L73,86.4l-0.1,0.2l0,0c-0.1,0.1-0.1,0.2-0.1,0.3l0,0c0,0.1,0,0.1,0,0.2c0,0,0,0.3,0,0.3v0.2l0,0	c0,0.1,0,0.2,0.1,0.3c2.4,6.4,4.6,12.1,6.7,18" class="st3"/><path d="M77.6,108.8c0.4,0.9,0.7,1.9,1.1,2.8" class="st3"/><path d="M77.2,105.8c-1.9-4.4-4.1-8.6-6.4-13c-0.1-0.1-0.1-0.3-0.2-0.4l0,0c0-0.2,0-0.3,0-0.5c0-0.1,0-0.1,0-0.2	c0-0.1,0-0.2,0-0.3c0-0.1,0-0.2,0-0.2c0-0.2,0.1-0.3,0.2-0.5v-0.1c0.1-0.2,0.2-0.4,0.3-0.5l0.1-0.2c0.1-0.1,0.2-0.2,0.2-0.3l0.2-0.2	c0.1-0.1,0.2-0.2,0.3-0.3l0.2-0.2c0.2-0.2,0.4-0.3,0.6-0.4h-0.9c-0.2,0.1-0.4,0.3-0.6,0.4l-0.2,0.2c-0.1,0.1-0.2,0.2-0.3,0.3	l-0.2,0.2c-0.1,0.1-0.2,0.2-0.2,0.3L70.3,90l-0.1,0.1c-0.1,0.1-0.1,0.2-0.1,0.3v0.1c-0.1,0.1-0.1,0.3-0.2,0.4c0,0,0,0.1,0,0.1	s0,0.2,0,0.2s0,0.2,0,0.2s0-0.1,0,0s0,0.2,0,0.2l0,0l0.1,0.3v0.2c-0.1,0.2-0.2,0.4-0.3,0.6l0,0c0.1,0.1,0.1,0.2,0.2,0.4	c2.2,4.4,4.4,8.4,6.3,12.7" class="st3"/><path d="M77.2,105.6c-1.9-4.3-4.1-8.5-6.3-12.9c-0.6-1.2,0.2-3.3,1.9-4.4l6.7,17.5" class="st3"/><path d="M79.4,111.3c-0.3-0.9-0.6-1.8-1-2.6" class="st3"/><line x1="80.7" x2="81.2" y1="109" y2="110.3" class="st3"/><path d="M73.7,105.6c-1.8-3-3.6-5.5-5.5-8.3C68.1,97.2,68,97,68,96.9c0,0,0-0.1,0-0.2c0-0.1,0-0.2,0-0.3	c0-0.1,0-0.1,0-0.2c0-0.1,0-0.2,0-0.3c0-0.1,0-0.2,0-0.2c0-0.1,0.1-0.2,0.1-0.4v-0.1c0.1-0.2,0.1-0.4,0.2-0.5l0.1-0.1	c0.1-0.1,0.2-0.3,0.2-0.4l0.1-0.2c0.1-0.1,0.2-0.2,0.3-0.4l0.1-0.2c0.2-0.2,0.4-0.3,0.6-0.4h-0.9c-0.2,0.1-0.3,0.3-0.5,0.5l-0.1,0.2	c-0.1,0.1-0.2,0.2-0.3,0.4l-0.1,0.2c-0.1,0.1-0.2,0.3-0.2,0.4l-0.1,0.1l0,0c-0.1,0.2-0.1,0.3-0.2,0.5v0.1c0,0.1-0.1,0.2-0.1,0.2	s0,0.1,0,0.2s0,0.2,0,0.2s0,0.1,0,0.1s0,0.1,0,0.2s0,0.1,0,0.2s0,0.1,0,0.1c0,0.1,0,0.2,0,0.2c0,0.1,0,0.1,0,0.2	c0,0.1,0.1,0.3,0.2,0.4c1.8,2.8,3.8,5.5,5.5,8.4" class="st3"/><path d="M73.7,105.6c-1.7-2.9-3.6-5.6-5.5-8.3c-0.7-1,0-3.1,1.6-4.3l6.1,12.7" class="st3"/><g><line x1="83.8" x2="78.9" y1="110.3" y2="113.1" class="st3"/><line x1="78.1" x2="83.4" y1="112.1" y2="109" class="st3"/><polyline points="78.1 113.1 78.9 113.1 79.1 114.4 78.1 114.3" class="st3"/></g><g><polyline points="83.9 112.1 81.9 113.2 79.5 113.1 83.9 110.5" class="st3"/><polygon points="81.9 113.2 82.1 114.6 79.7 114.4 79.5 113.1" class="st3"/></g><g><polyline points="92.9 107.2 95.3 107.3 88.4 111.3" class="st3"/><line x1="82.4" x2="83.9" y1="113.3" y2="112.3" class="st3"/><polyline points="83.9 114.7 82.6 114.6 82.4 113.3 83.9 113.4" class="st3"/></g><g><polyline points="88.4 111.6 95.8 107.3 98.2 107.5 88.4 113.2" class="st3"/></g><g><polygon points="101.3 107.6 90.8 113.7 88.4 113.6 98.8 107.5" class="st3"/><polygon points="101.3 107.6 101.3 108.9 90.8 115 90.8 113.7" class="st3"/><polygon points="90.8 113.7 90.8 115 88.4 114.9 88.4 113.6" class="st3"/></g><g><polyline points="76.9 108.7 76.9 121.8 73.4 121.4 73.5 108.5" class="st3"/><polyline points="77.9 109.8 77.9 120.6 76.9 121.8 76.9 108.7" class="st3"/></g><g><polyline points="87.4 109.2 87.3 122.9 83.8 122.5 83.9 109" class="st3"/><polyline points="88.4 109.3 88.3 121.7 87.3 122.9 87.4 109.2" class="st3"/></g><g><path d="M91.6,106.6c1,0.1,1.3,0.4,0.5,0.8c-1,0.5-2.1,0.7-3.2,0.6l-18-1l2.6-1.4L91.6,106.6z" class="st3"/><path d="M92.6,106.9c0,0.2-0.2,0.4-0.4,0.4c-1,0.5-2.1,0.7-3.2,0.6l-18-1l0.2,1.3l18.1,0.9c1.1,0,2.1-0.2,3.1-0.6 c0.2-0.1,0.4-0.2,0.4-0.4L92.6,106.9z" class="st3"/></g><path d="M132.3,73.6c0.1,1.5,1,2.8,2.4,3.5c3.7,2,8.2,2.1,12,0.1c1.7-1,2.6-2.3,2.6-3.7" class="st1"/><path d="M147.1,79.3l-0.3-0.1l-0.7,3.4c-0.3,1.4-2.4,2.7-5.3,2.7s-5-1.2-5.3-2.7l-0.7-3.4l0,0c-3.5,1.9-3.6,5.1-0.3,7.1	c3.9,2,8.4,2.1,12.3,0.1C150.3,84.5,150.5,81.3,147.1,79.3z" class="st5"/><line x1="2.2" x2="22.6" y1="33.9" y2="33.9" class="st1"/><line x1="113.2" x2="130.5" y1="33.9" y2="33.9" class="st1"/><line x1="141.6" x2="150.5" y1="33.9" y2="33.9" class="st1"/><path d="M110.6,100.9c0,0.6-0.8,0.8-1.1,0.3c-0.4-0.7,1.2-1.4,1.5-1.7c0.3-0.3,0.4-0.6,0.3-0.8	c-0.1-0.3-0.7-0.3-0.8,0.1c-0.1,0.6,2.7,3.9,3.5,3.1c0.9-0.9-0.9-2.6-1.5-3.4c0.5,0.8,2.5,3,3.6,2.3c1.5-0.9-3.7-3.3-1.5-4.2" class="st9"/><path d="M116.1,98.7c0.3-0.4,0.6-0.9,0.6-1.1c0-0.2-0.2-0.7-0.8-0.4C115.4,97.5,115.8,98.4,116.1,98.7	c1.2,1,2.5,0.2,2.2-0.8c-0.2-0.6-1.3-3-1.9-2.4s2.1,3,2.9,2.5c0.6-0.4-0.1-1.1-0.1-1.1" class="st9"/><path d="M120,95.9c0-0.3-0.4-0.8-0.9-0.6c-0.5,0.2-0.3,1.1,0.2,1.6c0.5,0.4,1.2,0.7,1.8,0.4c0.5-0.3,0.2-1,0.2-1.2" class="st9"/><path d="M120.8,94.4c-0.3,0.2-0.3,0.7,0,1.2c0.3,0.5,1.1,0.9,1.5,0.6c0.5-0.3,0.3-1-0.2-1.4	C121.8,94.3,121.3,94.1,120.8,94.4z" class="st9"/><path d="M121.8,94.9c0.1,0.4,0.6,1,1.3,0.6s-0.7-1.7-0.9-1.9" class="st9"/><path d="M123.9,95.5c-0.6-0.7-1.7-1.9-1.1-2.3c0.6-0.4,1.9,1.1,2.2,1.3c-0.3-0.3-1.6-1.6-0.9-2.1	c0.9-0.6,1.7,2.3,2.7,1.3c0.4-0.4,0-0.9,0.2-1.1c1.1-1.1-0.1-2-0.7-1.6c-0.6,0.4,0.4,1.5,0.8,1.7s0.8,0.2,1.2,0.1	c0.4-0.2,0.6-1-0.2-1.5" class="st9"/></svg>