<svg xmlns="http://www.w3.org/2000/svg" xmlns:xlink="http://www.w3.org/1999/xlink" x="0" y="0" version="1.1" viewBox="0 0 374.2 177.9" xml:space="preserve" style="enable-background:new 0 0 374.2 177.9"><style type="text/css">.st15{opacity:.75;fill:#ecf0f1}</style><g id="clouds"><path d="M59.5,177.9C26.6,177.9,0,151.2,0,118.4c0-32.9,26.6-59.5,59.5-59.5c10,0,19.4,2.5,27.7,6.9 C97.5,27.9,132,0,173.1,0c39.7,0,73.3,26,84.7,61.9c5.9-2,12.3-3.1,18.9-3.1c30.1,0,55,22.4,58.9,51.4c1.5-0.2,3-0.3,4.6-0.3 c18.8,0,34,15.2,34,34c0,18.8-15.2,34-34,34H59.5z" class="st15"/></g></svg>