<svg xmlns="http://www.w3.org/2000/svg" xmlns:xlink="http://www.w3.org/1999/xlink" style="enable-background:new 0 0 400 200" id="Layer_1" x="0" y="0" version="1.1" viewBox="0 0 400 200" xml:space="preserve"><style type="text/css">.st0{fill:none;stroke:#3498db;stroke-width:2;stroke-linejoin:round;stroke-miterlimit:10}.st1{fill:#3498db}.st4{enable-background:new}.st9{stroke-width:1.2911}.st130,.st382,.st383,.st9{fill:none;stroke:#3498db;stroke-linejoin:round;stroke-miterlimit:10}.st382{stroke-width:1.2771;stroke-dasharray:2.3551,1.1776}.st383{stroke-dasharray:2,1}.st384{stroke-width:.5888;stroke-dasharray:1.1776,.5888}.st384,.st385,.st386{fill:none;stroke:#3498db;stroke-linejoin:round;stroke-miterlimit:10}.st385{stroke-width:.2944;stroke-dasharray:1.1776,.5888}.st386{stroke-width:.5888}.st387,.st388{stroke-width:1.2771}.st387{fill:none;stroke:#3498db;stroke-linejoin:round}.st388{stroke-dasharray:2.428,1.214}.st388,.st389,.st393,.st394,.st395,.st396,.st397{fill:none;stroke:#3498db;stroke-linejoin:round}.st389{stroke-width:1.2771;stroke-dasharray:2.3087,1.1544}.st393{stroke-width:.8514}.st393,.st394,.st395,.st396,.st397{stroke-miterlimit:10}.st394{stroke-width:1.1188}.st395{stroke-width:1.1798}.st396{stroke-width:1.2771}.st397{stroke-width:.4257}</style><path d="M324.1,78.1l0-2.6l-1.3-2.6l-2.1,1.2l-1,1.2l0.1,1l-15.8-9.1l-0.1-2.6l-1.3-2.6l-2.3,1.2l-1.4,1.2v0.3	l-15.4-9.1l0.1-2.6l-1.2-2.6l-2.1,1.2l-1.2,1.2l0,0.3l-15.6-9.1l0-2.6l-1.2-2.6l-2.1,1.2l-1.3,1.2l0,0.3L243.4,32l0-2.6l-1.3-2.6	l-2.1,1.2l-1.3,1.2l0,0.3l-15.6-9.1l0-2.6l-1.3-2.6l-2.1,1.2l-1.3,1.2l0,0.3l-15.6-9.1l0-2.6l-1.3-2.6l-2.1,1.2l-1.3,1.2l0,14.2	l2.5,1.4l2.1-1.2l0-2.1l6.9,4.1c0.4-0.4,0.9-0.7,1.4-1.1c0.6-0.3,1.2-0.6,1.8-0.9L203,14.5l0-1.9l15.6,9l-0.1,0.9L221,24v-0.1	l2.1,1.3l0-0.9l15.6,9l-0.1,1l2.4,1.4v-0.1l2.2,1.3l0.1-1l15.6,9l0,1.1l2.5,1.4l2.1,1.1l0-1l15.6,9l-0.3,1.2l1.1,1.2v8.6l1.4,0.6	l2.2-1.2l-0.1-2.1l15.5,9.4l0.3-0.1l0,4.2l2.5,1.4l2.1-1.2l0-2.1l15.7,9.4l0,3.4L322,91l2.1-1.2l0-2.1l12.4,7.5c0-0.1,0-0.1,0.1-0.1	c0.5-0.3,1-0.6,1.5-0.9c0,0,0,0,0,0c0,0,0,0,0,0l0,0c0.5-0.3,1-0.7,1.5-1.1L324.1,84l0-1.9l17.1,9.9c0,0,0.1,0,0.1-0.1	c0-0.7,0-1.4,0-2.1c0-0.8,0.1-1.4,0.1-1.6L324.1,78.1z M283.5,61.3l0.1-1.9l15.6,9l0,2.1L283.5,61.3z M319.6,82.2L303.9,73l0-1.9	l15.7,9.1L319.6,82.2z" class="st1"/><line x1="199.5" x2="52.6" y1="187.8" y2="102.4" class="st9"/><g><polyline points="199.3 188.3 347.2 102.7 347.7 201.5" class="st130"/></g><g><polyline points="52.8 201.5 52.3 102.7 199.3 188.3" class="st130"/></g><g><polyline points="280 59 280.1 95.1 248.6 113.3" class="st382"/></g><g><polyline points="182.7 54.4 182.7 38.7 248.5 77.1 248.6 113.3 229.4 102.1" class="st382"/></g><line x1="264.5" x2="264.5" y1="68" y2="103" class="st383"/><g><g><path d="M275.2,66.2l-1,0.6l0.3,0.5c0,0,0.9-0.5,1-0.6l0,0c0,0,0,0,0,0l0,0c0,0,0,0,0,0l0,0c0,0,0,0,0,0l0,0 c0,0,0,0,0,0l0,0c0,0,0,0,0,0l0,0c0,0,0,0,0,0l0,0c0,0,0,0,0,0l0,0c0,0,0,0,0,0l0,0c0,0,0,0,0,0l0,0l0,0L275.2,66.2L275.2,66.2z M273.7,67l-1,0.6l0.3,0.5c0,0,0.4-0.2,0.7-0.4l0.3-0.2L273.7,67L273.7,67z M272.2,67.9l-1,0.6l0.3,0.5l1-0.6L272.2,67.9 L272.2,67.9z M270.6,68.8l-1,0.6l0.3,0.5l1-0.6L270.6,68.8L270.6,68.8z M269.1,69.7l-1,0.6l0.3,0.5c0,0,0.3-0.2,0.6-0.3l0,0 c0,0,0,0,0,0l0.4-0.2L269.1,69.7L269.1,69.7z M267.6,70.6l-1,0.6l0.3,0.5c0,0,0.1-0.1,0.3-0.2l0.7-0.4L267.6,70.6L267.6,70.6z M266,71.5l-1,0.6l0.3,0.5l0,0c0,0,0,0,0,0l0,0c0,0,0,0,0,0l0,0c0,0,0,0,0,0l0,0c0,0,0,0,0,0l0,0c0,0,0,0,0,0l0,0c0,0,0,0,0,0l0,0 c0,0,0,0,0,0l0,0c0.2-0.1,1-0.6,1-0.6L266,71.5L266,71.5z M264.5,72.3l-1,0.6l0.3,0.5l0.4-0.2c0,0,0,0,0,0l0,0c0,0,0,0,0,0l0,0 c0,0,0,0,0,0l0,0c0.3-0.2,0.6-0.3,0.6-0.3L264.5,72.3L264.5,72.3z M263,73.2l-1,0.6l0.3,0.5l1-0.6L263,73.2L263,73.2z M261.5,74.1 l-1,0.6l0.3,0.5l1-0.6L261.5,74.1L261.5,74.1z M259.9,75l-1,0.6l0.3,0.5l0.6-0.3c0,0,0,0,0,0l0,0c0,0,0,0,0,0l0,0c0,0,0,0,0,0l0,0 c0.2-0.1,0.4-0.3,0.4-0.3L259.9,75L259.9,75z M258.4,75.9l-1,0.6l0.3,0.5l1-0.6L258.4,75.9L258.4,75.9z M256.9,76.8l-1,0.6 l0.3,0.5c0,0,0.5-0.3,0.8-0.4l0,0c0,0,0,0,0,0l0.3-0.1L256.9,76.8L256.9,76.8z M255.3,77.6l-1,0.6l0.3,0.5l0.3-0.2 c0.3-0.2,0.7-0.4,0.7-0.4L255.3,77.6L255.3,77.6z M253.8,78.5l-1,0.6l0.3,0.5l1-0.6L253.8,78.5L253.8,78.5z M252.9,80.1l-0.6,0 l0,1.2l0.6,0L252.9,80.1L252.9,80.1z M253,81.9l-0.6,0l0,1.2l0.6,0l0-0.5c0,0,0,0,0,0l0,0C253,82.3,253,81.9,253,81.9L253,81.9z M253,83.7l-0.6,0l0,1.2l0.6,0l0-0.6c0,0,0,0,0,0l0,0c0,0,0,0,0,0v0c0,0,0,0,0,0v0c0,0,0,0,0,0v0C253,83.9,253,83.7,253,83.7 L253,83.7z M253,85.4l-0.6,0l0,1.2l0.6,0l0-0.8C253,85.6,253,85.4,253,85.4L253,85.4z M253,87.2l-0.6,0l0,1.2l0.6,0L253,87.2 L253,87.2z M253,89l-0.6,0l0,1.2l0.6,0L253,89L253,89z M253,90.7l-0.6,0l0,1.2l0.6,0c0,0,0-0.5,0-0.8v0c0,0,0,0,0,0l0,0 c0,0,0,0,0,0v0v0l0,0c0,0,0,0,0,0L253,90.7L253,90.7z M253,92.5l-0.6,0l0,1.2l0.6,0c0,0,0-0.2,0-0.4v0c0,0,0,0,0,0l0,0 c0,0,0,0,0,0l0,0c0,0,0,0,0,0l0,0c0,0,0,0,0,0v0c0,0,0,0,0,0l0,0c0,0,0,0,0,0L253,92.5L253,92.5z M253,94.3l-0.6,0l0,1.2l0.6,0 c0,0,0,0,0,0v0c0,0,0,0,0,0l0,0v0v0c0,0,0,0,0,0v0c0,0,0,0,0,0v0c0,0,0,0,0,0v0c0,0,0,0,0,0v0c0,0,0,0,0,0l0,0c0,0,0,0,0,0v0 c0,0,0,0,0,0v0c0,0,0,0,0,0v0c0,0,0,0,0,0v0c0,0,0,0,0,0L253,94.3L253,94.3z M253,96l-0.6,0l0,1.2l0.6,0L253,96L253,96z M253,97.8 l-0.6,0l0,1.2l0.6,0L253,97.8L253,97.8z M253,99.6l-0.6,0l0,1.2l0.6,0l0-0.5c0,0,0,0,0,0v0C253,99.9,253,99.6,253,99.6L253,99.6z M253,101.3l-0.6,0l0,1.2l0.6,0l0-0.6C253,101.6,253,101.3,253,101.3L253,101.3z M253,103.1l-0.6,0l0,1.2l0.6,0l0-0.8 C253,103.3,253,103.1,253,103.1L253,103.1z M253,104.9l-0.6,0l0,0.7c0,0.2,0.1,0.4,0.3,0.5c0.1,0.1,0.2,0.1,0.3,0.1 c0.1,0,0.2,0,0.3-0.1l0.4-0.2l-0.3-0.5l-0.4,0.2l0,0c0,0,0,0,0,0v0c0,0,0,0,0,0v0c0,0,0,0,0,0v0c0,0,0,0,0,0v0c0,0,0,0,0,0l0,0 c0,0,0,0,0,0l0,0c0,0,0,0,0,0v0c0,0,0,0,0,0v0c0,0,0,0,0,0v0c0,0,0,0,0,0v0c0,0,0,0,0,0v0c0,0,0,0,0,0v0c0,0,0,0,0,0v0 C253,105.4,253,104.9,253,104.9L253,104.9z M255,104.5c0,0-0.4,0.2-0.7,0.4l-0.3,0.2l0.3,0.5l1-0.6L255,104.5L255,104.5z M256.5,103.6c0,0-0.2,0.1-0.4,0.2l0,0c0,0,0,0,0,0l0,0c0,0,0,0,0,0l-0.6,0.3l0.3,0.5l1-0.6L256.5,103.6L256.5,103.6z M258,102.7 l-1,0.6l0.3,0.5l1-0.6L258,102.7L258,102.7z M259.5,101.8l-0.2,0.1c0,0,0,0,0,0l0,0c-0.3,0.2-0.8,0.5-0.8,0.5l0.3,0.5l1-0.6 L259.5,101.8L259.5,101.8z M261.1,100.9c0,0-0.1,0.1-0.3,0.2l-0.7,0.4l0.3,0.5l1-0.6L261.1,100.9L261.1,100.9z M262.6,100.1 l-1,0.6l0.3,0.5l1-0.6L262.6,100.1L262.6,100.1z M264.1,99.2l-0.4,0.2c0,0,0,0,0,0l0,0c-0.3,0.2-0.6,0.4-0.6,0.4l0.3,0.5l1-0.6 L264.1,99.2L264.1,99.2z M265.7,98.3l-0.8,0.5c0,0,0,0,0,0l0,0c0,0,0,0,0,0l0,0c0,0,0,0,0,0l0,0c0,0,0,0,0,0l0,0 c-0.1,0.1-0.2,0.1-0.2,0.1l0.3,0.5l1-0.6L265.7,98.3L265.7,98.3z M267.2,97.4c0,0-0.6,0.4-0.9,0.5l0,0c0,0,0,0,0,0l0,0 c0,0,0,0,0,0l-0.1,0.1l0.3,0.5l1-0.6L267.2,97.4L267.2,97.4z M268.7,96.5l-1,0.6l0.3,0.5l1-0.6L268.7,96.5L268.7,96.5z M270.3,95.6l-1,0.5c0,0,0,0,0,0l0,0c0,0,0,0,0,0l0,0c0,0,0,0,0,0l0,0c0,0,0,0,0,0l0,0c0,0,0,0,0,0l0,0c0,0-0.1,0-0.1,0l0.3,0.5 l1-0.6L270.3,95.6L270.3,95.6z M271.8,94.8c0,0-0.5,0.3-0.8,0.4l0,0c0,0,0,0,0,0l0,0c0,0,0,0,0,0l-0.2,0.1l0.3,0.5l1-0.6 L271.8,94.8L271.8,94.8z M273.3,93.9c0,0-0.2,0.1-0.5,0.3l0,0c0,0,0,0,0,0l-0.6,0.3l0.3,0.5l1-0.6L273.3,93.9L273.3,93.9z M274.8,93l-1,0.6l0.3,0.5l1-0.6L274.8,93L274.8,93z M276.2,91.6l-0.6,0l0,0.9l0,0l0,0l0,0l0,0c0,0,0,0,0,0l0,0c0,0,0,0,0,0l0,0 c0,0,0,0,0,0l0,0c0,0,0,0,0,0l0,0c0,0-0.2,0.1-0.2,0.1l0.3,0.5l0.2-0.1c0.2-0.1,0.3-0.3,0.3-0.5L276.2,91.6L276.2,91.6z M276.2,89.9l-0.6,0l0,1.2l0.6,0L276.2,89.9L276.2,89.9z M276.2,88.1l-0.6,0l0,0.4c0,0,0,0,0,0v0c0,0.3,0,0.8,0,0.8l0.6,0 L276.2,88.1L276.2,88.1z M276.2,86.3l-0.6,0l0,0.6c0,0,0,0,0,0v0c0,0.3,0,0.6,0,0.6l0.6,0L276.2,86.3L276.2,86.3z M276.2,84.6 l-0.6,0l0,0.7c0,0,0,0,0,0v0c0,0.2,0,0.4,0,0.4l0.6,0L276.2,84.6L276.2,84.6z M276.1,82.8l-0.6,0l0,1.2l0.6,0L276.1,82.8 L276.1,82.8z M276.1,81l-0.6,0l0,1.2l0.6,0L276.1,81L276.1,81z M276.1,79.3l-0.6,0c0,0,0,0.7,0,1v0c0,0,0,0,0,0v0c0,0,0,0,0,0v0 c0,0,0,0,0,0v0c0,0,0,0,0,0v0c0,0,0,0,0,0l0,0c0,0,0,0,0,0v0c0,0,0,0,0,0v0c0,0,0,0,0,0v0c0,0,0,0,0,0l0,0.1l0.6,0L276.1,79.3 L276.1,79.3z M276.1,77.5l-0.6,0c0,0,0,0.3,0,0.6v0c0,0,0,0,0,0v0c0,0,0,0,0,0v0c0,0,0,0,0,0v0c0,0,0,0,0,0v0c0,0,0,0,0,0l0,0.5 l0.6,0L276.1,77.5L276.1,77.5z M276.1,75.8l-0.6,0c0,0,0,0.1,0,0.2v0c0,0,0,0,0,0v0c0,0,0,0,0,0v0c0,0,0,0,0,0v0c0,0,0,0,0,0v0 c0,0,0,0,0,0v0c0,0,0,0,0,0l0,0c0,0,0,0,0,0l0,1l0.6,0L276.1,75.8L276.1,75.8z M276.1,74l-0.6,0l0,1.2l0.6,0L276.1,74L276.1,74z M276.1,72.2l-0.6,0l0,1.2l0.6,0L276.1,72.2L276.1,72.2z M276.1,70.5l-0.6,0l0,0.4c0,0.3,0,0.8,0,0.8l0.6,0L276.1,70.5L276.1,70.5 z M276.1,68.7l-0.6,0l0,0.6c0,0,0,0,0,0v0c0,0.3,0,0.6,0,0.6l0.6,0L276.1,68.7L276.1,68.7z M276.1,66.9l-0.6,0l0,0.7c0,0,0,0,0,0 l0,0c0,0,0,0,0,0v0c0,0,0,0,0,0v0c0,0.2,0,0.4,0,0.4l0.6,0L276.1,66.9L276.1,66.9z" class="st1"/></g></g><polyline points="187.9 57.8 187.9 47.7 243.3 80.1 243.4 104.3 229.2 96" class="st384"/><polyline points="274.2 67.4 274.2 91.6 253.1 103.8" class="st385"/><polyline points="238.4 77.3 238.4 99.7 235.9 100.3 236 75.7" class="st384"/><line x1="233.2" x2="233.3" y1="92" y2="73.8" class="st384"/><polyline points="235.9 100.3 233.2 98.7 233.2 95.7" class="st384"/><line x1="243.3" x2="238.6" y1="102.3" y2="99.6" class="st385"/><line x1="225.9" x2="226" y1="80.9" y2="69.9" class="st384"/><line x1="228.4" x2="228.3" y1="71.5" y2="83.8" class="st384"/><line x1="223.1" x2="223.2" y1="78.5" y2="68" class="st384"/><line x1="233.2" x2="228.5" y1="96.5" y2="93.8" class="st385"/><line x1="215.7" x2="215.8" y1="74.6" y2="64.1" class="st384"/><line x1="218.2" x2="218.2" y1="65.6" y2="75.5" class="st384"/><line x1="213" x2="213.1" y1="72.6" y2="62.1" class="st384"/><line x1="205.7" x2="205.8" y1="68.8" y2="58.3" class="st384"/><line x1="208.2" x2="208.1" y1="59.9" y2="69.3" class="st384"/><line x1="202.9" x2="203" y1="66.8" y2="56.4" class="st384"/><line x1="195.8" x2="195.8" y1="61.9" y2="52.4" class="st384"/><line x1="198.2" x2="198.2" y1="54" y2="63.6" class="st384"/><line x1="192.7" x2="192.8" y1="61.1" y2="50.2" class="st384"/><polygon points="248.3 114.1 280 95.6 280 85.1 296.8 94.9 262 114.4" class="st1"/><g><g class="st4"><g><polygon points="198.9 187.3 197.2 186.3 197.2 172.1 198.9 173.1" class="st386"/></g><g><polygon points="200.1 170.4 201.4 171.6 201.4 185.9 198.9 187.3 198.9 173.1" class="st386"/></g><g><polygon points="198.9 173.1 197.2 172.1 198.5 169.5 200.1 170.4" class="st386"/></g></g></g><polyline points="201.5 179.9 219.6 169.4 219.6 171.3 201.4 181.8" class="st386"/><g><g class="st4"><line x1="218.1" x2="218.1" y1="168.4" y2="166.8" class="st386"/><polyline points="218.1 162.9 218 160.2 219.7 161.2 219.7 175.4 218.1 174.4 218.1 172.4" class="st386"/><polygon points="221 158.5 222.2 159.7 222.3 173.9 219.7 175.4 219.7 161.2" class="st386"/><polygon points="219.7 161.2 218 160.2 219.3 157.5 221 158.5" class="st386"/></g><polyline points="201.2 174.4 219.3 163.9 219.3 165.8 201.2 176.4" class="st386"/><polyline points="201 172.5 217.8 163 219.3 164" class="st386"/><polygon points="217.9 166.6 217.9 166.6 219.7 167.8 219.7 165.8" class="st1"/><polyline points="201 178 217.8 168.5 219.3 169.4" class="st386"/></g><polygon points="217.9 172.1 217.9 172.1 219.7 173.3 219.7 171.3" class="st1"/><g><g class="st4"><line x1="238.4" x2="238.4" y1="156.2" y2="154.6" class="st386"/><polyline points="238.4 150.7 238.4 148 240.1 148.9 240.1 163.2 238.5 162.2 238.5 160.1" class="st386"/><polygon points="241.3 146.3 242.6 147.5 242.6 161.7 240.1 163.2 240.1 148.9" class="st386"/><polygon points="240.1 148.9 238.4 148 239.7 145.3 241.3 146.3" class="st386"/></g><polyline points="221.8 162.2 239.9 151.7 239.9 153.6 221.8 164.1" class="st386"/><polyline points="221.6 160.3 238.4 150.7 239.9 151.7" class="st386"/><polygon points="238.2 154.4 238.2 154.4 240 155.6 240 153.6" class="st1"/><polyline points="221.8 167.7 239.9 157.2 239.9 159.1 221.8 169.6" class="st386"/><polyline points="221.6 165.8 238.4 156.2 239.9 157.2" class="st386"/><polygon points="238.2 159.8 238.2 159.8 240 161 240 159.1" class="st1"/></g><g><g class="st4"><line x1="259" x2="259" y1="144.6" y2="143" class="st386"/><polyline points="259 139.1 259 136.4 260.7 137.4 260.7 151.6 259.1 150.6 259.1 148.6" class="st386"/><polygon points="261.9 134.7 263.2 135.9 263.2 150.1 260.7 151.6 260.7 137.4" class="st386"/><polygon points="260.7 137.4 259 136.4 260.3 133.8 261.9 134.7" class="st386"/></g><polyline points="242.4 150.6 260.5 140.1 260.5 142.1 242.4 152.6" class="st386"/><polyline points="242.2 148.8 259 139.2 260.5 140.2" class="st386"/><polygon points="258.8 142.8 258.8 142.8 260.7 144 260.7 142.1" class="st1"/><polyline points="242.4 156.1 260.5 145.6 260.5 147.5 242.4 158" class="st386"/><polyline points="242.2 154.2 259 144.7 260.5 145.6" class="st386"/></g><polygon points="258.6 148.7 258.6 148.7 260.4 149.8 260.4 147.9" class="st1"/><g><g><g class="st4"><line x1="279.7" x2="279.6" y1="132.7" y2="131.1" class="st386"/><polyline points="279.6 127.2 279.6 124.5 281.3 125.4 281.3 139.7 279.7 138.7 279.7 136.7" class="st386"/><polygon points="282.5 122.8 283.8 124 283.8 138.2 281.3 139.7 281.3 125.4" class="st386"/><polygon points="281.3 125.4 279.6 124.5 280.9 121.8 282.5 122.8" class="st386"/></g><polyline points="263.1 138.7 281.1 128.2 281.1 130.1 263 140.6" class="st386"/><polyline points="262.8 136.8 279.6 127.3 281.1 128.2" class="st386"/><polygon points="279.4 130.9 279.4 130.9 281.3 132.1 281.3 130.1" class="st1"/><polyline points="263.1 144.2 281.1 133.7 281.1 135.6 263 146.1" class="st386"/><polyline points="262.8 142.3 279.6 132.7 281.1 133.7" class="st386"/></g><polygon points="279.4 136.4 279.4 136.4 281.3 137.5 281.3 135.6" class="st1"/></g><g><g class="st4"><line x1="300.3" x2="300.3" y1="120.9" y2="119.3" class="st386"/><polyline points="300.2 115.4 300.2 112.7 301.9 113.6 301.9 127.9 300.3 126.9 300.3 124.9" class="st386"/><polygon points="303.1 111 304.4 112.2 304.4 126.4 301.9 127.9 301.9 113.6" class="st386"/><polygon points="301.9 113.6 300.2 112.7 301.5 110 303.1 111" class="st386"/></g><polyline points="283.7 126.9 301.8 116.4 301.7 118.3 283.6 128.8" class="st386"/><polyline points="283.4 125 300.2 115.5 301.7 116.4" class="st386"/><polygon points="300 119.1 300 119.1 301.9 120.3 301.9 118.3" class="st1"/><polyline points="283.7 132.4 301.8 121.9 301.7 123.8 283.6 134.3" class="st386"/><polyline points="283.4 130.5 300.2 120.9 301.7 121.9" class="st386"/><polygon points="300 124.6 300 124.6 301.9 125.8 301.9 123.8" class="st1"/></g><g><g class="st4"><line x1="320.9" x2="320.9" y1="108.7" y2="107.1" class="st386"/><polyline points="320.8 103.3 320.8 100.5 322.5 101.5 322.5 115.7 320.9 114.7 320.9 112.7" class="st386"/><polygon points="323.7 98.8 325 100 325.1 114.3 322.5 115.7 322.5 101.5" class="st386"/><polygon points="322.5 101.5 320.8 100.5 322.1 97.9 323.7 98.8" class="st386"/></g><polyline points="304.3 114.8 322.4 104.2 322.4 106.2 304.2 116.7" class="st386"/><polyline points="304 112.9 320.8 103.3 322.3 104.3" class="st386"/><polygon points="320.7 106.9 320.7 106.9 322.5 108.1 322.5 106.2" class="st1"/><polyline points="304.3 120.2 322.4 109.7 322.4 111.6 304.2 122.1" class="st386"/><polyline points="304 118.3 320.8 108.8 322.3 109.7" class="st386"/><polygon points="320.7 112.4 320.7 112.4 322.5 113.6 322.5 111.6" class="st1"/></g><g><g class="st4"><line x1="341.5" x2="341.5" y1="97.2" y2="95.6" class="st386"/><polyline points="341.5 91.7 341.4 89 343.1 89.9 343.1 104.2 341.5 103.2 341.5 101.2" class="st386"/><polygon points="344.4 87.3 345.6 88.5 345.7 102.7 343.1 104.2 343.1 89.9" class="st386"/><polygon points="343.1 89.9 341.4 89 342.7 86.3 344.4 87.3" class="st386"/></g><polyline points="324.9 103.2 343 92.7 343 94.6 324.8 105.1" class="st386"/><polyline points="324.6 101.3 341.4 91.8 342.9 92.7" class="st386"/><polygon points="341.3 95.4 341.3 95.4 343.1 96.6 343.1 94.6" class="st1"/><polyline points="324.9 108.7 343 98.2 343 100.1 324.8 110.6" class="st386"/><polyline points="324.6 106.8 341.4 97.2 342.9 98.2" class="st386"/><polygon points="341.3 100.9 341.3 100.9 343.1 102.1 343.1 100.1" class="st1"/></g><g><g class="st4"><g><polyline points="98.3 125.1 98.3 127.3 96.2 128.5 96.2 114.2 98.3 113 98.3 115.6" class="st386"/><line x1="98.3" x2="98.3" y1="119.4" y2="121.5" class="st386"/></g><g><polygon points="95 111.6 96.2 114.2 96.2 128.5 93.7 127 93.7 112.8" class="st386"/></g><g><polygon points="95 111.6 97.1 110.4 98.3 113 96.2 114.2" class="st386"/></g></g></g><g><g class="st4"><g><polyline points="78.1 113.4 78.1 115.6 76 116.8 76.1 102.5 78.1 101.3 78.1 103.9" class="st386"/><line x1="78.1" x2="78.1" y1="107.7" y2="109.8" class="st386"/></g><g><polygon points="74.8 99.9 76.1 102.5 76 116.8 73.5 115.3 73.6 101.1" class="st386"/></g><g><polygon points="74.8 99.9 76.9 98.7 78.1 101.3 76.1 102.5" class="st386"/></g></g></g><g><g><g class="st4"><g><polygon points="93.8 116.9 76.1 106.7 76.1 104.7 93.8 115" class="st386"/></g><g><polygon points="93.8 115.1 76.1 104.7 77.9 103.8 93.8 113.1" class="st386"/></g></g></g><g><g class="st4"><g><polygon points="93.7 122.9 76 112.3 76 110.3 93.7 120.9" class="st386"/></g><g><polygon points="93.7 120.9 76 110.3 77.4 109.4 93.7 118.9" class="st386"/></g></g></g></g><g><g><g class="st4"><g><polygon points="73.6 105.2 55.9 95 55.9 93 73.6 103.3" class="st386"/></g><g><polygon points="73.6 103.4 55.9 93 57.7 92.1 73.6 101.4" class="st386"/></g></g></g><g><g class="st4"><g><polygon points="73.5 111.2 55.9 100.5 55.9 98.6 73.5 109.2" class="st386"/></g><g><polygon points="73.5 109.2 55.9 98.6 57.3 97.7 73.5 107.2" class="st386"/></g></g></g></g><g><g class="st4"><g><polyline points="179 171.2 179 173.3 176.9 174.5 177 160.3 179.1 159.1 179.1 161.7" class="st386"/><line x1="179" x2="179" y1="165.5" y2="167.6" class="st386"/></g><g><polygon points="175.7 157.7 177 160.3 176.9 174.5 174.4 173.1 174.5 158.9" class="st386"/></g><g><polygon points="175.7 157.7 177.8 156.5 179.1 159.1 177 160.3" class="st386"/></g></g></g><g><g><g class="st4"><g><polygon points="197.3 176.2 177 164.4 177 162.5 197.2 174.3" class="st386"/></g><g><polygon points="197.2 174.2 177 162.5 178.8 161.6 197.2 172.3" class="st386"/></g></g></g><g><g class="st4"><g><polyline points="197.1 182.1 176.9 170 176.9 168.1" class="st386"/></g><g><polygon points="197.3 180.3 176.9 168.1 178.3 167.2 197.3 178.3" class="st386"/></g></g></g></g><g><g class="st4"><g><polyline points="158.8 160.2 158.8 162.4 156.7 163.6 156.7 149.3 158.8 148.1 158.8 150.7" class="st386"/><line x1="158.8" x2="158.8" y1="154.6" y2="156.6" class="st386"/></g><g><polygon points="155.5 146.7 156.7 149.3 156.7 163.6 154.2 162.1 154.2 147.9" class="st386"/></g><g><polygon points="155.5 146.7 157.6 145.5 158.8 148.1 156.7 149.3" class="st386"/></g></g></g><g><g><g class="st4"><g><polygon points="174.5 163.7 156.7 153.5 156.7 151.5 174.5 161.8" class="st386"/></g><g><polygon points="174.5 161.9 156.7 151.5 158.6 150.6 174.5 159.9" class="st386"/></g></g></g><g><g class="st4"><g><polygon points="174.4 169.7 156.7 159.1 156.7 157.1 174.4 167.8" class="st386"/></g><g><polygon points="174.4 167.8 156.7 157.1 158.1 156.2 174.4 165.7" class="st386"/></g></g></g></g><g><g class="st4"><g><polyline points="138.6 148.5 138.6 150.7 136.5 151.9 136.6 137.6 138.6 136.4 138.6 139" class="st386"/><line x1="138.6" x2="138.6" y1="142.9" y2="144.9" class="st386"/></g><g><polygon points="135.3 135 136.6 137.6 136.5 151.9 134 150.4 134.1 136.2" class="st386"/></g><g><polygon points="135.3 135 137.4 133.8 138.6 136.4 136.6 137.6" class="st386"/></g></g></g><g><g><g class="st4"><g><polygon points="154.3 152 136.6 141.8 136.6 139.8 154.3 150.1" class="st386"/></g><g><polygon points="154.3 150.2 136.6 139.8 138.4 138.9 154.3 148.2" class="st386"/></g></g></g><g><g class="st4"><g><polygon points="154.2 158 136.5 147.4 136.5 145.4 154.2 156.1" class="st386"/></g><g><polygon points="154.2 156.1 136.5 145.4 137.9 144.5 154.2 154" class="st386"/></g></g></g></g><g><g class="st4"><g><polyline points="118.4 136.8 118.4 139 116.4 140.2 116.4 125.9 118.5 124.7 118.5 127.3" class="st386"/><line x1="118.5" x2="118.5" y1="131.2" y2="133.2" class="st386"/></g><g><polygon points="115.1 123.3 116.4 125.9 116.4 140.2 113.9 138.7 113.9 124.5" class="st386"/></g><g><polygon points="115.1 123.3 117.2 122.1 118.5 124.7 116.4 125.9" class="st386"/></g></g></g><g><g><g class="st4"><g><polygon points="134.1 140.3 116.4 130.1 116.4 128.1 134.1 138.4" class="st386"/></g><g><polygon points="134.1 138.5 116.4 128.1 118.2 127.2 134.1 136.5" class="st386"/></g></g></g><g><g class="st4"><g><polygon points="134 146.3 116.4 135.7 116.4 133.7 134 144.3" class="st386"/></g><g><polygon points="134 144.3 116.4 133.7 117.8 132.8 134 142.3" class="st386"/></g></g></g></g><g><g><g class="st4"><g><polygon points="114 128.6 96.2 118.4 96.2 116.4 114 126.7" class="st386"/></g><g><polygon points="114 126.8 96.2 116.4 98.1 115.5 114 124.8" class="st386"/></g></g></g><g><g class="st4"><g><polygon points="113.9 134.6 96.2 124 96.2 122 113.9 132.6" class="st386"/></g><g><polygon points="113.9 132.6 96.2 122 97.6 121.1 113.9 130.6" class="st386"/></g></g></g></g><g><g class="st4"><g><polyline points="57.9 101.7 57.9 103.9 55.9 105.1 55.9 90.8 58 89.6 58 92.2" class="st386"/><line x1="58" x2="58" y1="96" y2="98.1" class="st386"/></g><g><polygon points="54.7 88.2 55.9 90.8 55.9 105.1 53.4 103.6 53.4 89.4" class="st386"/></g><g><polygon points="54.7 88.2 56.7 87 58 89.6 55.9 90.8" class="st386"/></g></g></g><g><g><g><line x1="182.7" x2="183.7" y1="38.7" y2="38.1" class="st387"/><line x1="184.7" x2="212.6" y1="37.5" y2="21.4" class="st388"/><polyline points="213.1 21.1 214.1 20.5 215.1 21.1" class="st387"/><line x1="216.1" x2="278.4" y1="21.7" y2="58.1" class="st389"/><polyline points="278.9 58.4 280 59 278.9 59.5" class="st387"/><line x1="277.9" x2="250" y1="60.1" y2="76.2" class="st388"/><line x1="249.5" x2="248.5" y1="76.5" y2="77.1" class="st387"/></g></g></g><g><line x1="218.9" x2="214.2" y1="81.4" y2="78.6" class="st393"/><polyline points="226 80.3 236.6 97.6 228.9 93.1" class="st394"/><polyline points="219.1 78.5 229 87.6 229.1 125.7 181.7 153.1 181.6 117.3" class="st395"/><line x1="199.7" x2="181.4" y1="136.2" y2="146.7" class="st393"/><line x1="228.9" x2="222.1" y1="119.3" y2="123.3" class="st393"/><line x1="199.5" x2="181.4" y1="129.9" y2="140.4" class="st393"/><line x1="229.1" x2="222" y1="112.8" y2="117" class="st393"/><polygon points="181.7 153.1 130.4 123.3 130.3 86.3 181.6 116.1" class="st395"/><g><line x1="130.2" x2="181.5" y1="116.9" y2="146.7" class="st393"/><line x1="130.2" x2="181.5" y1="110.6" y2="140.4" class="st393"/><line x1="130.2" x2="181.5" y1="104.2" y2="134" class="st393"/><line x1="130.2" x2="181.5" y1="97.9" y2="127.7" class="st393"/><line x1="130.2" x2="181.5" y1="91.5" y2="121.3" class="st393"/></g><line x1="199.5" x2="181.4" y1="123.6" y2="134" class="st393"/><line x1="228.7" x2="222" y1="106.8" y2="110.6" class="st393"/><line x1="228.8" x2="181.4" y1="100.3" y2="127.7" class="st393"/><line x1="228.8" x2="181.4" y1="94" y2="121.3" class="st393"/><line x1="206.3" x2="190.1" y1="100.6" y2="109.9" class="st393"/><line x1="228.8" x2="215.2" y1="87.6" y2="95.5" class="st393"/><line x1="206.2" x2="193.8" y1="94.3" y2="101.5" class="st393"/><line x1="224.6" x2="214.7" y1="83.7" y2="89.4" class="st393"/><line x1="220.5" x2="201.2" y1="79.7" y2="90.9" class="st393"/><polygon points="210.9 79.2 147 41.7 161.8 42.7 225.7 80.2" class="st396"/><g><line x1="221.9" x2="157.9" y1="79.8" y2="42.3" class="st397"/><line x1="218.2" x2="154.2" y1="79.5" y2="42.1" class="st397"/><line x1="214.5" x2="150.5" y1="79.3" y2="41.8" class="st397"/></g><polygon points="185.6 119.2 121.7 81.7 132.2 59.7 196.2 97.2" class="st396"/><polygon points="196.2 97.2 132.2 59.7 147 41.7 210.9 79.2" class="st396"/><g><line x1="193.2" x2="196.5" y1="95.9" y2="92.1" class="st393"/><line x1="187.3" x2="190.6" y1="92.5" y2="88.7" class="st393"/><line x1="181.5" x2="184.8" y1="89.1" y2="85.3" class="st393"/><line x1="175.7" x2="179" y1="85.7" y2="81.9" class="st393"/><line x1="169.9" x2="173.2" y1="82.3" y2="78.5" class="st393"/><line x1="164.1" x2="167.4" y1="78.9" y2="75.1" class="st393"/><line x1="158.3" x2="161.6" y1="75.5" y2="71.7" class="st393"/><line x1="152.5" x2="155.8" y1="72.1" y2="68.3" class="st393"/><line x1="146.6" x2="149.9" y1="68.7" y2="64.9" class="st393"/><line x1="140.8" x2="144.1" y1="65.3" y2="61.5" class="st393"/><line x1="135" x2="138.3" y1="61.9" y2="58" class="st393"/></g><g><line x1="193.2" x2="196.5" y1="90.4" y2="86.6" class="st393"/><line x1="187.3" x2="190.6" y1="87" y2="83.2" class="st393"/><line x1="181.5" x2="184.8" y1="83.6" y2="79.8" class="st393"/><line x1="175.7" x2="179" y1="80.2" y2="76.4" class="st393"/><line x1="169.9" x2="173.2" y1="76.8" y2="73" class="st393"/><line x1="164.1" x2="167.4" y1="73.4" y2="69.5" class="st393"/><line x1="158.3" x2="161.6" y1="70" y2="66.1" class="st393"/><line x1="152.5" x2="155.8" y1="66.6" y2="62.7" class="st393"/><line x1="146.6" x2="149.9" y1="63.2" y2="59.3" class="st393"/><line x1="140.8" x2="144.1" y1="59.7" y2="55.9" class="st393"/></g><g><line x1="199.1" x2="202.4" y1="88.7" y2="84.9" class="st393"/><line x1="193.3" x2="196.6" y1="85.3" y2="81.5" class="st393"/><line x1="187.5" x2="190.8" y1="81.9" y2="78.1" class="st393"/><line x1="181.7" x2="185" y1="78.5" y2="74.7" class="st393"/><line x1="175.9" x2="179.2" y1="75.1" y2="71.3" class="st393"/><line x1="170" x2="173.3" y1="71.7" y2="67.8" class="st393"/><line x1="164.2" x2="167.5" y1="68.3" y2="64.4" class="st393"/><line x1="158.4" x2="161.7" y1="64.9" y2="61" class="st393"/><line x1="152.6" x2="155.9" y1="61.4" y2="57.6" class="st393"/><line x1="146.8" x2="150.1" y1="58" y2="54.2" class="st393"/><line x1="141" x2="144.3" y1="54.6" y2="50.8" class="st393"/></g><g><line x1="204.2" x2="207.5" y1="81" y2="77.2" class="st393"/><line x1="198.4" x2="201.7" y1="77.6" y2="73.8" class="st393"/><line x1="192.6" x2="195.9" y1="74.2" y2="70.4" class="st393"/><line x1="186.8" x2="190.1" y1="70.8" y2="67" class="st393"/><line x1="181" x2="184.3" y1="67.4" y2="63.6" class="st393"/><line x1="175.2" x2="178.5" y1="64" y2="60.2" class="st393"/><line x1="169.3" x2="172.6" y1="60.6" y2="56.8" class="st393"/><line x1="163.5" x2="166.8" y1="57.2" y2="53.4" class="st393"/><line x1="157.7" x2="161" y1="53.8" y2="50" class="st393"/><line x1="151.9" x2="155.2" y1="50.4" y2="46.6" class="st393"/><line x1="146.1" x2="149.4" y1="47" y2="43.1" class="st393"/></g><g><line x1="199.1" x2="202.4" y1="83.2" y2="79.3" class="st393"/><line x1="193.3" x2="196.6" y1="79.8" y2="75.9" class="st393"/><line x1="187.5" x2="190.8" y1="76.4" y2="72.5" class="st393"/><line x1="181.7" x2="185" y1="72.9" y2="69.1" class="st393"/><line x1="175.9" x2="179.2" y1="69.5" y2="65.7" class="st393"/><line x1="170" x2="173.3" y1="66.1" y2="62.3" class="st393"/><line x1="164.2" x2="167.5" y1="62.7" y2="58.9" class="st393"/><line x1="158.4" x2="161.7" y1="59.3" y2="55.5" class="st393"/><line x1="152.6" x2="155.9" y1="55.9" y2="52.1" class="st393"/><line x1="146.8" x2="150.1" y1="52.5" y2="48.7" class="st393"/></g><g><line x1="193.9" x2="130" y1="101.6" y2="64.1" class="st393"/><line x1="191.8" x2="127.8" y1="106" y2="68.5" class="st393"/><line x1="189.7" x2="125.7" y1="110.4" y2="72.9" class="st393"/><line x1="187.6" x2="123.6" y1="114.8" y2="77.3" class="st393"/></g><g><line x1="204.9" x2="208.8" y1="75.8" y2="75.9" class="st397"/><line x1="199.1" x2="203" y1="72.4" y2="72.5" class="st397"/><line x1="193.3" x2="197.2" y1="69" y2="69.1" class="st397"/><line x1="187.5" x2="191.4" y1="65.5" y2="65.7" class="st397"/><line x1="181.7" x2="185.5" y1="62.1" y2="62.3" class="st397"/><line x1="175.9" x2="179.7" y1="58.7" y2="58.9" class="st397"/><line x1="170" x2="173.9" y1="55.3" y2="55.5" class="st397"/><line x1="164.2" x2="168.1" y1="51.9" y2="52.1" class="st397"/><line x1="158.4" x2="162.3" y1="48.5" y2="48.7" class="st397"/><line x1="152.6" x2="156.5" y1="45.1" y2="45.3" class="st397"/></g><g><line x1="215.5" x2="211.6" y1="77.9" y2="77.8" class="st397"/><line x1="205.8" x2="209.7" y1="74.3" y2="74.5" class="st397"/><line x1="200" x2="203.8" y1="70.9" y2="71.1" class="st397"/><line x1="194.2" x2="198" y1="67.5" y2="67.7" class="st397"/><line x1="188.3" x2="192.2" y1="64.1" y2="64.3" class="st397"/><line x1="182.5" x2="186.4" y1="60.7" y2="60.9" class="st397"/><line x1="176.7" x2="180.6" y1="57.3" y2="57.5" class="st397"/><line x1="170.9" x2="174.8" y1="53.9" y2="54.1" class="st397"/><line x1="165.1" x2="169" y1="50.5" y2="50.7" class="st397"/><line x1="159.3" x2="163.1" y1="47.1" y2="47.3" class="st397"/><line x1="153.5" x2="157.3" y1="43.7" y2="43.9" class="st397"/></g><g><line x1="221.9" x2="218" y1="77.5" y2="77.3" class="st397"/><line x1="212.2" x2="216" y1="73.9" y2="74.1" class="st397"/><line x1="206.4" x2="210.2" y1="70.5" y2="70.7" class="st397"/><line x1="200.5" x2="204.4" y1="67.1" y2="67.3" class="st397"/><line x1="194.7" x2="198.6" y1="63.7" y2="63.9" class="st397"/><line x1="188.9" x2="192.8" y1="60.3" y2="60.5" class="st397"/><line x1="183.1" x2="187" y1="56.9" y2="57.1" class="st397"/><line x1="177.3" x2="181.2" y1="53.5" y2="53.7" class="st397"/><line x1="171.5" x2="175.3" y1="50.1" y2="50.2" class="st397"/><line x1="165.7" x2="169.5" y1="46.7" y2="46.8" class="st397"/></g><g><line x1="212.3" x2="216.2" y1="76.2" y2="76.4" class="st397"/><line x1="206.5" x2="210.4" y1="72.8" y2="73" class="st397"/><line x1="200.7" x2="204.6" y1="69.4" y2="69.6" class="st397"/><line x1="194.9" x2="198.7" y1="66" y2="66.1" class="st397"/><line x1="189.1" x2="192.9" y1="62.6" y2="62.7" class="st397"/><line x1="183.2" x2="187.1" y1="59.2" y2="59.3" class="st397"/><line x1="177.4" x2="181.3" y1="55.8" y2="55.9" class="st397"/><line x1="171.6" x2="175.5" y1="52.3" y2="52.5" class="st397"/><line x1="165.8" x2="169.7" y1="48.9" y2="49.1" class="st397"/><line x1="160" x2="163.9" y1="45.5" y2="45.7" class="st397"/></g><g><g><line x1="181.9" x2="179.5" y1="111.3" y2="116.4" class="st393"/><line x1="176.1" x2="173.6" y1="107.9" y2="113" class="st393"/><line x1="170.3" x2="167.8" y1="104.5" y2="109.5" class="st393"/><line x1="164.5" x2="162" y1="101" y2="106.1" class="st393"/><line x1="158.7" x2="156.2" y1="97.6" y2="102.7" class="st393"/><line x1="152.8" x2="150.4" y1="94.2" y2="99.3" class="st393"/><line x1="147" x2="144.6" y1="90.8" y2="95.9" class="st393"/><line x1="141.2" x2="138.8" y1="87.4" y2="92.5" class="st393"/><line x1="135.4" x2="133" y1="84" y2="89.1" class="st393"/><line x1="129.6" x2="127.1" y1="80.6" y2="85.7" class="st393"/></g></g><g><g><line x1="186.6" x2="184.2" y1="108.3" y2="113.4" class="st393"/><line x1="180.8" x2="178.4" y1="104.9" y2="110" class="st393"/><line x1="175" x2="172.6" y1="101.5" y2="106.6" class="st393"/><line x1="169.2" x2="166.7" y1="98.1" y2="103.2" class="st393"/><line x1="163.4" x2="160.9" y1="94.7" y2="99.8" class="st393"/><line x1="157.6" x2="155.1" y1="91.3" y2="96.4" class="st393"/><line x1="151.7" x2="149.3" y1="87.9" y2="93" class="st393"/><line x1="145.9" x2="143.5" y1="84.4" y2="89.5" class="st393"/><line x1="140.1" x2="137.7" y1="81" y2="86.1" class="st393"/><line x1="134.3" x2="131.9" y1="77.6" y2="82.7" class="st393"/><line x1="128.5" x2="126" y1="74.2" y2="79.3" class="st393"/></g></g><g><g><line x1="186.3" x2="183.8" y1="102.4" y2="107.4" class="st393"/><line x1="180.5" x2="178" y1="99" y2="104" class="st393"/><line x1="174.6" x2="172.2" y1="95.5" y2="100.6" class="st393"/><line x1="168.8" x2="166.4" y1="92.1" y2="97.2" class="st393"/><line x1="163" x2="160.6" y1="88.7" y2="93.8" class="st393"/><line x1="157.2" x2="154.8" y1="85.3" y2="90.4" class="st393"/><line x1="151.4" x2="148.9" y1="81.9" y2="87" class="st393"/><line x1="145.6" x2="143.1" y1="78.5" y2="83.6" class="st393"/><line x1="139.8" x2="137.3" y1="75.1" y2="80.2" class="st393"/><line x1="134" x2="131.5" y1="71.7" y2="76.8" class="st393"/></g></g><g><g><line x1="191" x2="188.5" y1="99.4" y2="104.5" class="st393"/><line x1="185.2" x2="182.7" y1="96" y2="101.1" class="st393"/><line x1="179.4" x2="176.9" y1="92.6" y2="97.7" class="st393"/><line x1="173.6" x2="171.1" y1="89.2" y2="94.3" class="st393"/><line x1="167.7" x2="165.3" y1="85.8" y2="90.9" class="st393"/><line x1="161.9" x2="159.5" y1="82.4" y2="87.4" class="st393"/><line x1="156.1" x2="153.7" y1="78.9" y2="84" class="st393"/><line x1="150.3" x2="147.9" y1="75.5" y2="80.6" class="st393"/><line x1="144.5" x2="142" y1="72.1" y2="77.2" class="st393"/><line x1="138.7" x2="136.2" y1="68.7" y2="73.8" class="st393"/><line x1="132.9" x2="130.4" y1="65.3" y2="70.4" class="st393"/></g></g><g><g><line x1="190.6" x2="188.2" y1="93.4" y2="98.5" class="st393"/><line x1="184.8" x2="182.4" y1="90" y2="95.1" class="st393"/><line x1="179" x2="176.6" y1="86.6" y2="91.7" class="st393"/><line x1="173.2" x2="170.8" y1="83.2" y2="88.3" class="st393"/><line x1="167.4" x2="164.9" y1="79.8" y2="84.9" class="st393"/><line x1="161.6" x2="159.1" y1="76.4" y2="81.5" class="st393"/><line x1="155.8" x2="153.3" y1="73" y2="78.1" class="st393"/><line x1="149.9" x2="147.5" y1="69.6" y2="74.7" class="st393"/><line x1="144.1" x2="141.7" y1="66.2" y2="71.3" class="st393"/><line x1="138.3" x2="135.9" y1="62.8" y2="67.9" class="st393"/></g></g><g><polyline points="135.2 56.1 173.1 78.3 199.1 93.6" class="st393"/><polyline points="138.1 52.5 176 74.7 202.1 90" class="st393"/><polyline points="141.1 48.9 179 71.1 205 86.4" class="st393"/><polyline points="144 45.3 181.9 67.5 208 82.8" class="st393"/></g><polyline points="221.8 129.4 221.8 104.4 199.4 117.4 199.4 142.5" class="st393"/><line x1="210.8" x2="210.8" y1="111" y2="135.7" class="st386"/><polygon points="212.4 112.1 219.4 107.8 219.4 129.1 212.4 133.5" class="st386"/><polygon points="201.8 118.2 208.8 113.9 208.8 135.1 201.8 139.5" class="st386"/><line x1="201.8" x2="208.8" y1="139.4" y2="114" class="st386"/><line x1="201.9" x2="208.9" y1="118.3" y2="135.3" class="st386"/><line x1="212.4" x2="219.5" y1="112.2" y2="128.9" class="st386"/><line x1="212.5" x2="219.4" y1="133.4" y2="107.9" class="st386"/><polygon points="208.9 82.1 219 83.1 225.8 89.2 229 93.4 229 87.6 220.5 79.7 210.9 79.2" class="st1"/><g><g><path d="M210.6,88.7l4,1.1l0,9.3l-8.1,4.7l0-9.3L210.6,88.7 M210.6,87.9c-0.2,0-0.5,0.1-0.6,0.3l-4,5.8 c-0.1,0.1-0.1,0.3-0.1,0.4l0,9.3c0,0.3,0.1,0.5,0.4,0.7c0.1,0.1,0.2,0.1,0.4,0.1c0.1,0,0.3,0,0.4-0.1l8.1-4.7 c0.2-0.1,0.4-0.4,0.4-0.7l0-9.3c0-0.3-0.2-0.6-0.6-0.7l-4-1.1C210.8,87.9,210.7,87.9,210.6,87.9L210.6,87.9z" class="st1"/></g></g><g><polyline points="206.3 102.4 213.5 98.3 214.9 99" class="st393"/></g><g><polyline points="214.9 99 213.5 98.3 213.5 89.2" class="st393"/></g><polygon points="131 87.5 131 91.6 181 121.3 181 116" class="st1"/><polygon points="181.4 153.9 229 126.2 229 115.6 245.6 125.5 195.2 153.8" class="st1"/></g><path d="M198.7,8.9l-1,0.8L181.5,19l0.1-1.1l-1.2-1.2l-1.6-1l-1.2,2.6l0.1,2.7v0.1l-0.1,0l-16.4,9.3l0-0.5l-1.3-1.2	l-1.7-1l-1.5,2.6l-0.2,2.7v0.1l-16.2,9.3l0.1-0.8l-1.2-1.2l-1.6-1l-1.2,2.6l0.1,2.7v0.1l-0.1,0l-16.4,9.3l0-0.7l-1.3-1.2l-1.7-1	l-1.5,2.6l-0.2,2.7v0.1L99,66.4l0.1-1.1l-1.2-1.2l-1.6-1l-1.2,2.6l0.1,2.7v0.1l-0.2,0l-16.3,9.2v-0.3l-1.2-1.2l-1.6-1l-1.6,2.6	L74,80.8v0.1l-13.4,7.8l-2.4,1.3l0,2.1l1.5,1.3l14.9-8.7l0.1,0l0,1.6l0-0.2L61,94.1l0.7,0.3l3.2,1.7l9.5-5.9l0.2-0.1l0,2l1.7,1	l2.5-1.4l0-4.6l16.2-9.4l0.1,0V78l-0.1,2l1.6,1l2.5-1.4L99,75.8l16.2-9.5v0.2l0.2,2l1.8,1l2.6-1.4v-4.1l16.4-9.5l0.1,0v0.1l0,1.5	c2.9-2.5,4.4-6.1,6.4-9.3l-2.4,1.3l0-1.5l16.4-9.5l0,0l0,1.7l-0.1,0l-5.3,3c1.4,0.2,2.8,0.4,4.3,0.6c1.7,0.2,3.5,0.2,5.2,0.6l0-3.2	l16.5-9.5l0.1,0v0.1l-0.1,2l1.6,1l2.5-1.4l0-3.8l16-9.4V19l0,0.3c0.3-0.1,0.5-0.2,0.8-0.4 M95,74.1l-16.2,9.2l0-1.5L95,72.4l0,0	L95,74.1L95,74.1z M115.6,62.5l-16.4,9.3l0-1.5l16.4-9.5l0,0L115.6,62.5L115.6,62.5z M136.2,50.6l-16.4,9.3l0-1.5l16.4-9.5l0,0	L136.2,50.6L136.2,50.6z M177.4,26.6L161.1,36l0-1.5l16.4-9.5l0,0L177.4,26.6L177.4,26.6z M198,15.1l-16.4,9.3l0-1.5l16.4-9.5l0,0	L198,15.1L198,15.1z" class="st1"/><line x1="198.5" x2="198.5" y1="187" y2="202" class="st130"/><line x1="0" x2="150.5" y1="40" y2="40" class="st0"/><line x1="249.5" x2="400" y1="40" y2="40" class="st0"/></svg>