<svg xmlns="http://www.w3.org/2000/svg" xmlns:xlink="http://www.w3.org/1999/xlink" style="enable-background:new 0 0 400 200" id="Layer_1" x="0" y="0" version="1.1" viewBox="0 0 400 200" xml:space="preserve"><style type="text/css">.st1{fill:#fff;stroke-width:.8239}.st1,.st2,.st4,.st5,.st7{stroke:#3498db;stroke-linecap:round;stroke-linejoin:round;stroke-miterlimit:10}.st2,.st4{fill:none;stroke-width:2}.st4{fill:#fff}.st5,.st7{fill:none;stroke-width:.8514}.st7{stroke-width:.841}.st9{fill:#3498db}.st16{enable-background:new}.st52{fill:#fff}</style><path d="M401,27.5c-7.2,0-14.4-6.5-14.4-6.5s-7.2,6.5-14.4,6.5c-7.2,0-14.4-6.5-14.4-6.5s-7.2,6.5-14.4,6.5	c-7.2,0-14.4-6.5-14.4-6.5s-7.2,6.5-14.4,6.5c-7.2,0-14.4-6.5-14.4-6.5s-7.2,6.5-14.4,6.5c-7.2,0-14.4-6.5-14.4-6.5	s-7.2,6.5-14.4,6.5c-7.2,0-14.4-6.5-14.4-6.5s-7.2,6.5-14.4,6.5c-7.2,0-14.4-6.5-14.4-6.5s-7.2,6.5-14.4,6.5	c-7.2,0-14.3-6.5-14.3-6.5s-7.2,6.5-14.4,6.5c-7.2,0-14.4-6.5-14.4-6.5s-7.2,6.5-14.4,6.5c-7.2,0-14.4-6.5-14.4-6.5	s-7.2,6.5-14.4,6.5c-7.2,0-14.4-6.5-14.4-6.5s-7.2,6.5-14.4,6.5C78,27.5,70.8,21,70.8,21s-7.2,6.5-14.4,6.5	c-7.2,0-14.4-6.5-14.4-6.5s-7.2,6.5-14.4,6.5c-7.2,0-14.4-6.5-14.4-6.5S6.2,27.5-1,27.5" class="st2"/><path d="M157.5,45.3c-7.2,0-14.4-6.5-14.4-6.5s-7.2,6.5-14.4,6.5c-7.2,0-14.4-6.5-14.4-6.5s-7.2,6.5-14.4,6.5	c-7.2,0-14.4-6.5-14.4-6.5s-7.2,6.5-14.4,6.5" class="st2"/><path d="M163.2,137.4c26.7,0,15.8,41.7,47.3,41.7c14.1,0,27.3-8.5,35-12.9c7.6-4.4,106.8-62,106.8-62l0.1-40.8" class="st4"/><g><path d="M181.3,149.3l-2.6-3.5c8.7-2.5,17-1.8,23.7-1.3c11.2,0.8,21.7,1.6,37.6-9.2c0,0,0.1-0.1,0.1-0.1l112.1-65.5 l0,5l-110.1,63.9c-17,11.6-28.8,10.7-40.1,9.8C195.7,148,189,147.5,181.3,149.3z" class="st5"/></g><g><path d="M330.8,75.8L239,129.2c-30.8,17.9-49.5,3.6-75.8,8.2c8.3-14.9-16.9-26.1,13.9-44l106.3-61.8l69,31.8" class="st4"/><path d="M205.7,135.5c-5.1,0-9.9-0.5-15-1c-5.1-0.5-10.3-1.1-15.8-1.1c-2.5,0-4.9,0.1-7.2,0.3c0.9-4.7-0.5-9-1.7-12.9 c-2.6-8.3-4.6-14.8,12.6-24.8l104.8-60.9l56,32.3l-101.8,59.2C226.9,132.8,217.1,135.5,205.7,135.5z" class="st5"/></g><g><path d="M165.9,120.8c1.9-3.2,5.7-6.7,12.7-10.8l104.8-60.9l43.8,25.3" class="st5"/></g><line x1="283.3" x2="283.3" y1="33.2" y2="49.2" class="st5"/><g><g><line x1="282.8" x2="326.1" y1="49.7" y2="74.7" class="st7"/></g><line x1="277.9" x2="321.2" y1="52.6" y2="77.6" class="st7"/><line x1="272.9" x2="316.2" y1="55.5" y2="80.4" class="st7"/><line x1="267.9" x2="311.2" y1="58.3" y2="83.3" class="st7"/><line x1="263" x2="306.2" y1="61.2" y2="86.2" class="st7"/><line x1="258" x2="301.3" y1="64.1" y2="89.1" class="st7"/><line x1="253" x2="296.3" y1="66.9" y2="91.9" class="st7"/><line x1="248.1" x2="291.3" y1="69.8" y2="94.8" class="st7"/><line x1="243.1" x2="286.4" y1="72.7" y2="97.7" class="st7"/><line x1="238.1" x2="281.4" y1="75.6" y2="100.5" class="st7"/><line x1="233.2" x2="276.4" y1="78.4" y2="103.4" class="st7"/><line x1="228.2" x2="271.5" y1="81.3" y2="106.3" class="st7"/><line x1="223.2" x2="266.5" y1="84.2" y2="109.2" class="st7"/><line x1="218.3" x2="261.5" y1="87" y2="112" class="st7"/><line x1="213.3" x2="256.6" y1="89.9" y2="114.9" class="st7"/><line x1="208.3" x2="251.6" y1="92.8" y2="117.8" class="st7"/><line x1="203.4" x2="246.6" y1="95.7" y2="120.6" class="st7"/><line x1="198.4" x2="241.7" y1="98.5" y2="123.5" class="st7"/><line x1="193.4" x2="236.7" y1="101.4" y2="126.4" class="st7"/><line x1="188.5" x2="231.7" y1="104.3" y2="129.3" class="st7"/><line x1="183.5" x2="226.8" y1="107.2" y2="132.1" class="st7"/><line x1="178.5" x2="219.9" y1="110" y2="133.9" class="st7"/><line x1="173.6" x2="212.4" y1="112.9" y2="135.3" class="st7"/><line x1="169.6" x2="202.7" y1="116.4" y2="135.5" class="st7"/><line x1="166.3" x2="191.2" y1="120.2" y2="134.5" class="st7"/><path d="M167.8,126.9c3.9,2.2,7.7,4.4,11.6,6.5" class="st7"/></g><g><path d="M246.7,151.8c2.3-1.3,4.2-4.6,4.2-7.3c0-2.7-1.9-3.8-4.3-2.4c-2.3,1.3-4.2,4.6-4.2,7.3 C242.5,152.1,244.4,153.2,246.7,151.8" class="st5"/></g><g><path d="M272.7,137.1c2.3-1.3,4.2-4.6,4.2-7.3c0-2.7-1.9-3.8-4.3-2.4c-2.3,1.3-4.2,4.6-4.2,7.3 C268.4,137.3,270.3,138.4,272.7,137.1" class="st5"/></g><g><path d="M298.7,121.2c2.3-1.3,4.2-4.6,4.2-7.3c0-2.7-1.9-3.8-4.3-2.4s-4.2,4.6-4.2,7.3 C294.4,121.4,296.3,122.5,298.7,121.2" class="st5"/></g><g><path d="M325,106.4c2.3-1.3,4.2-4.6,4.2-7.3c0-2.7-1.9-3.8-4.3-2.4c-2.3,1.3-4.2,4.6-4.2,7.3S322.6,107.8,325,106.4" class="st5"/></g><path d="M249.5,142c0.2,0.5,0.4,1.1,0.4,1.8c0,2.7-1.9,6-4.2,7.3c-1.1,0.6-2.1,0.7-2.9,0.4c0.7,1.3,2.2,1.6,3.9,0.6	c2.3-1.3,4.2-4.6,4.2-7.3C250.9,143.3,250.4,142.4,249.5,142z" class="st5"/><path d="M275.5,127.2c0.2,0.5,0.4,1.1,0.4,1.8c0,2.7-1.9,6-4.2,7.3c-1.1,0.6-2.1,0.7-2.9,0.4c0.7,1.3,2.2,1.6,3.9,0.6	c2.3-1.3,4.2-4.6,4.2-7.3C276.9,128.6,276.4,127.6,275.5,127.2z" class="st5"/><path d="M301.5,111.3c0.2,0.5,0.4,1.1,0.4,1.8c0,2.7-1.9,6-4.2,7.3c-1.1,0.6-2.1,0.7-2.9,0.4c0.7,1.3,2.2,1.6,3.9,0.6	c2.3-1.3,4.2-4.6,4.2-7.3C302.9,112.7,302.3,111.7,301.5,111.3z" class="st5"/><path d="M327.8,96.6c0.2,0.5,0.4,1.1,0.4,1.8c0,2.7-1.9,6-4.2,7.3c-1.1,0.6-2.1,0.7-2.9,0.4c0.7,1.3,2.2,1.6,3.9,0.6	c2.3-1.3,4.2-4.6,4.2-7.3C329.2,97.9,328.7,97,327.8,96.6z" class="st5"/><line x1="339.3" x2="352.3" y1="67.5" y2="63.5" class="st5"/><g><path d="M255.8,51.1l27.5-16l56,32.3l-46.2,26.8l-46.4,27l-9.2,5.4c-10.6,6.1-20.4,8.9-31.8,8.9c-5.1,0-9.9-0.5-15-1 c-5.1-0.5-10.3-1.1-15.8-1.1c-2.5,0-4.9,0.1-7.2,0.3c0.9-4.7-0.5-9-1.7-12.9c-2.6-8.3-4.6-14.8,12.6-24.8l24.9-14.5" class="st5"/></g><polygon points="225.2 83 225.1 103.1 207.6 93 207.6 72.9" class="st1"/><polygon points="207.6 72.9 237.4 55.5 254.9 65.7 225.2 83" class="st1"/><polygon points="225.2 83 254.9 65.7 254.9 85.8 225.1 103.1" class="st1"/><polygon points="227.3 84.2 252.8 69.3 252.8 84.6 227.2 99.4" class="st1"/><polygon points="246.7 96.1 246.6 116.2 229.1 106.1 229.2 85.9" class="st1"/><polygon points="246.7 96.1 276.5 78.7 276.4 98.9 246.6 116.2" class="st1"/><line x1="237.9" x2="237.9" y1="111.2" y2="90.9" class="st1"/><polygon points="248.8 97.3 274.4 82.4 274.3 97.7 248.8 112.5" class="st1"/><polygon points="229.2 85.9 259 68.6 276.5 78.7 246.7 96.1" class="st1"/><line x1="216.4" x2="216.4" y1="98.1" y2="77.8" class="st1"/><polygon points="235.9 69.1 235.9 89.3 218.3 79.2 218.4 59" class="st1"/><polygon points="235.9 69.1 265.7 51.8 265.7 72 235.9 89.3" class="st1"/><polygon points="218.4 59 248.2 41.7 265.7 51.8 235.9 69.1" class="st1"/><line x1="227.1" x2="227.1" y1="84.2" y2="63.9" class="st1"/><g><polygon points="242.3 83.2 244.2 82.1 244.2 66.8 242.3 67.9" class="st1"/><polygon points="251.9 62.3 250.1 63.4 250 78.7 251.9 77.6" class="st1"/><polygon points="248 64.6 246.2 65.7 246.2 80.9 248 79.8" class="st1"/><polygon points="259.7 57.8 257.8 58.9 257.8 74.1 259.7 73.1" class="st1"/><polygon points="261.7 56.7 261.7 71.9 263.6 70.8 263.7 55.5" class="st1"/><polygon points="240.3 69.1 238.1 70.3 238.1 85.6 240.3 84.3" class="st1"/><polygon points="255.8 60.1 253.9 61.2 253.9 76.4 255.8 75.3" class="st1"/></g><polygon points="239.9 72.1 269.7 54.8 287.3 64.9 257.5 82.2" class="st1"/><polyline points="267.3 108.6 250.7 99 280.5 81.7 297.1 91.3" class="st1"/><polygon points="257.5 82.2 257.4 102.4 239.9 92.2 239.9 72.1" class="st1"/><line x1="248.7" x2="248.7" y1="97.3" y2="77" class="st1"/><polygon points="257.5 82.2 287.3 64.9 287.2 85 257.4 102.4" class="st1"/><g><polygon points="263.7 96.2 265.6 95.1 265.6 79.9 263.8 81" class="st1"/><polygon points="273.4 75.4 271.5 76.5 271.5 91.7 273.4 90.6" class="st1"/><polygon points="269.5 77.7 267.6 78.7 267.6 94 269.5 92.9" class="st1"/><polygon points="281.1 70.9 279.3 72 279.2 87.2 281.1 86.1" class="st1"/><polygon points="283.1 69.7 283.1 85 285.1 83.8 285.1 68.6" class="st1"/><polygon points="261.8 82.2 259.6 83.4 259.5 98.7 261.7 97.4" class="st1"/><polygon points="277.3 73.1 275.4 74.2 275.4 89.5 277.2 88.4" class="st1"/></g><polyline points="250.7 118.2 250.7 99 267.3 108.6" class="st1"/><line x1="259.5" x2="259.5" y1="113.2" y2="103.9" class="st1"/><path d="M115.7,148c-7.2,0-14.3-6.5-14.3-6.5S94.2,148,87,148c-7.2,0-14.4-6.5-14.4-6.5s-7.2,6.5-14.4,6.5	c-7.2,0-14.4-6.5-14.4-6.5s-7.2,6.5-14.4,6.5v32.2h86.1V148z" class="st52"/><path d="M115.7,148c-7.2,0-14.3-6.5-14.3-6.5S94.2,148,87,148c-7.2,0-14.4-6.5-14.4-6.5s-7.2,6.5-14.4,6.5	c-7.2,0-14.4-6.5-14.4-6.5s-7.2,6.5-14.4,6.5" class="st2"/><g><g class="st16"><g><polyline points="330.8 74.8 330.7 59.1 352.2 46.7 352.3 65.4" class="st4"/></g><g><path d="M330.8,75.8l0-16.7l-61.4-36.2l0,16.9l3.5,1.9v13.2c0.4,0.7,43.3,25.5,43.3,25.5l11.1-6.7L330.8,75.8z" class="st4"/></g><g><polygon points="330.7 59.1 269.3 22.9 290.8 10.6 352.2 46.7" class="st4"/></g></g></g><g><g class="st16"><path d="M320.4,9.8c0,0.1,0,0.2,0,0.3c0,0.1,0,0.2-0.1,0.2c0,0.1,0,0.2-0.1,0.3c0,0.1-0.1,0.1-0.1,0.2 c0,0.1-0.1,0.2-0.1,0.3c0,0.1-0.1,0.1-0.1,0.2c-0.1,0.1-0.1,0.2-0.2,0.3c0,0.1-0.1,0.1-0.1,0.2c-0.1,0.1-0.2,0.3-0.4,0.4 c0,0-0.1,0.1-0.1,0.1c-0.1,0.1-0.2,0.2-0.3,0.2c-0.1,0.1-0.2,0.1-0.2,0.2c-0.1,0.1-0.2,0.1-0.3,0.2c-0.1,0.1-0.2,0.1-0.3,0.2 c-0.4,0.2-0.8,0.4-1.2,0.6c-0.1,0-0.2,0.1-0.3,0.1c-0.3,0.1-0.6,0.2-0.8,0.3c-0.3,0.1-0.6,0.2-0.9,0.2c-0.4,0.1-0.7,0.1-1.1,0.2 c-0.1,0-0.2,0-0.3,0c-0.5,0.1-1,0.1-1.5,0.1c-0.1,0-0.2,0-0.2,0c-0.5,0-1,0-1.5-0.1c-0.1,0-0.1,0-0.2,0c-0.5-0.1-1-0.1-1.4-0.2 c-0.1,0-0.2,0-0.3-0.1c-0.4-0.1-0.8-0.2-1.2-0.4c-0.1,0-0.1,0-0.2-0.1c-0.5-0.2-0.9-0.4-1.4-0.6c-1.8-1-2.6-2.3-2.6-3.7l-0.1,24.6 c0,1.3,0.9,2.7,2.6,3.7c0.4,0.2,0.8,0.4,1.3,0.6c0,0,0,0,0.1,0c0.1,0,0.1,0,0.2,0.1c0.3,0.1,0.5,0.2,0.8,0.3 c0.1,0,0.3,0.1,0.4,0.1c0.1,0,0.2,0,0.3,0.1c0.1,0,0.1,0,0.2,0.1c0.3,0.1,0.6,0.1,0.9,0.2c0.1,0,0.2,0,0.3,0c0.1,0,0.1,0,0.2,0 c0.1,0,0.2,0,0.3,0c0.3,0,0.6,0,0.9,0c0.1,0,0.2,0,0.3,0c0.1,0,0.2,0,0.2,0c0.1,0,0.3,0,0.4,0c0.3,0,0.7,0,1-0.1c0,0,0.1,0,0.1,0 c0.1,0,0.2,0,0.3,0c0.3,0,0.5-0.1,0.8-0.1c0.1,0,0.2-0.1,0.3-0.1c0.3-0.1,0.6-0.1,0.9-0.2c0.2,0,0.3-0.1,0.5-0.1 c0.1,0,0.2-0.1,0.4-0.1c0.1,0,0.2-0.1,0.3-0.1c0.4-0.2,0.9-0.4,1.2-0.6c0,0,0.1,0,0.1-0.1c0.1,0,0.2-0.1,0.2-0.2 c0.1-0.1,0.2-0.1,0.3-0.2c0.1-0.1,0.2-0.1,0.2-0.2c0.1-0.1,0.2-0.1,0.3-0.2c0,0,0,0,0.1,0c0,0,0.1-0.1,0.1-0.1 c0.1-0.1,0.3-0.3,0.4-0.4c0,0,0.1-0.1,0.1-0.1c0,0,0-0.1,0.1-0.1c0.1-0.1,0.1-0.2,0.2-0.3c0,0,0.1-0.1,0.1-0.1c0,0,0,0,0-0.1 c0-0.1,0.1-0.2,0.1-0.3c0-0.1,0.1-0.1,0.1-0.2c0,0,0,0,0-0.1c0-0.1,0.1-0.2,0.1-0.3c0-0.1,0-0.1,0.1-0.2c0,0,0,0,0,0 c0-0.1,0-0.2,0-0.3c0-0.1,0-0.1,0-0.2c0,0,0-0.1,0-0.1l0.1-24.6C320.4,9.6,320.4,9.7,320.4,9.8z" class="st4"/><g><path d="M317.8,5.9c3.5,2,3.5,5.3,0,7.3c-3.5,2-9.1,2-12.6,0c-3.5-2-3.5-5.3,0-7.3C308.7,3.9,314.3,3.9,317.8,5.9z" class="st4"/></g></g></g><g id="layer1_1_"><g><path d="M345.3,62.4c0.1,0,0.2,0.1,0.2,0.3c0,0.1-0.1,0.3-0.2,0.3c0,0-0.1,0-0.1,0l-0.1,0c-0.1,0-0.1,0-0.2,0 c-0.1,0-0.3,0-0.4,0.1l-0.1,0.1l-0.1,0c-0.2,1-0.7,2-1.4,2.8l0,0.1l0,0.2c0.1,0.1,0.1,0.2,0.2,0.3c0.1,0,0.1,0.1,0.1,0.1l0,0.1 l0,0c0,0.1,0,0.3-0.1,0.4c0,0-0.1,0-0.1,0.1c-0.1,0.1-0.2,0-0.2,0l0-0.1c0-0.1-0.1-0.1-0.1-0.2c0-0.1-0.1-0.3-0.2-0.4l-0.1,0 l0-0.1c-0.4,0.4-0.7,0.7-1.1,0.9c-0.4,0.2-0.8,0.4-1.1,0.4l-0.1,0.2l-0.1,0.1c-0.1,0.2-0.1,0.4-0.2,0.6c0,0.1,0,0.2-0.1,0.3l0,0.1 l0,0.1c0,0.1-0.1,0.2-0.2,0.3c0,0-0.1,0-0.1,0c-0.1,0-0.2-0.2-0.1-0.3l0-0.1c0-0.1,0.1-0.2,0.1-0.3c0.1-0.2,0.2-0.4,0.2-0.6l0-0.1 l0-0.1c-0.7-0.1-1.2-0.5-1.4-1.2l-0.1,0.1l-0.1,0c-0.1,0.1-0.3,0.2-0.4,0.4c-0.1,0.1-0.1,0.2-0.2,0.2l-0.1,0l0,0c0,0,0,0,0,0 c-0.1,0.1-0.2,0-0.2-0.1c0-0.1,0.1-0.3,0.2-0.4l0.1-0.1c0.1-0.1,0.2-0.1,0.2-0.2c0.1-0.1,0.3-0.2,0.4-0.3l0.1-0.2l0.1-0.1 c-0.1-0.8,0.1-1.8,0.5-2.8l-0.1,0l0-0.1c-0.1,0-0.2-0.1-0.4-0.1c-0.1,0-0.1,0-0.2,0l-0.1,0c-0.1,0-0.1-0.2-0.1-0.4 c0.1-0.1,0.1-0.2,0.2-0.2l0.2,0l0.1,0l0.2,0.1c0.1,0.1,0.2,0.1,0.3,0.1l0.1-0.1l0.1,0c0.4-0.8,1-1.4,1.6-1.9 c0.1-0.1,0.3-0.2,0.4-0.3l0-0.1l0.1-0.2c0-0.2,0-0.3,0-0.5c0-0.1,0-0.2,0-0.2l0-0.1c0-0.2,0.1-0.4,0.2-0.5c0.1-0.1,0.2,0,0.2,0.2 l0,0.1c0,0.1,0,0.2,0,0.3c0,0.2,0,0.4,0,0.5l0.1,0.1l0,0.1c0.8-0.4,1.5-0.4,2,0l0.1-0.1l0.1-0.1c0.1-0.2,0.2-0.3,0.3-0.5l0.2-0.3 l0.1-0.1l0-0.1c0-0.1,0.1-0.1,0.1-0.1c0.1,0,0.2,0,0.2,0c0.1,0.1,0,0.3-0.1,0.4l-0.1,0.1c-0.1,0.1-0.1,0.2-0.2,0.2 c-0.1,0.2-0.2,0.3-0.4,0.5l0,0.2l-0.1,0.1c0.4,0.5,0.6,1.3,0.5,2.2l0.1,0l0.1,0.1c0.1,0,0.3-0.1,0.4-0.2c0.1,0,0.2-0.1,0.2-0.1 L345.3,62.4L345.3,62.4z M339,63.7c-0.3,0.7-0.4,1.4-0.3,2l1.2-1.1l0,0l0.1-0.1c0.1-0.1,0.1-0.3,0-0.3l0,0L339,63.7 M343.7,62.8 c0-0.7-0.1-1.2-0.4-1.6l-0.9,1.5l-0.1,0.2c0,0.2,0,0.2,0.2,0.2l0,0L343.7,62.8 M342.5,65.6c0.5-0.6,0.8-1.3,1-2l-1.3,0.5l-0.1,0 l0,0l-0.1,0.1c-0.1,0.1-0.2,0.3-0.1,0.4L342.5,65.6 M340.3,65.5l0-0.1c0-0.1-0.1-0.2-0.2-0.1l0,0l0,0l-1.3,1 c0.2,0.5,0.5,0.8,1,0.9L340.3,65.5L340.3,65.5 M341.8,66.4c0.1-0.1,0.2-0.1,0.2-0.2l-0.6-0.9c0-0.1-0.1-0.1-0.2,0c0,0,0,0,0,0 c-0.1,0-0.1,0.1-0.2,0.2l-0.6,1.6c0.3-0.1,0.5-0.2,0.8-0.3C341.4,66.7,341.6,66.6,341.8,66.4 M340.6,61.4 c-0.5,0.4-0.9,0.9-1.2,1.4l1,0.2l0.1,0c0,0,0,0,0,0c0.1-0.1,0.2-0.2,0.2-0.4l0.1-1.5C340.8,61.3,340.7,61.4,340.6,61.4 M342.9,60.9c-0.4-0.2-0.9-0.2-1.5,0l0.1,1.4l0,0.1c0,0,0.1,0,0.2,0c0,0,0.1-0.1,0.1-0.1L342.9,60.9 M341,63.6l-0.2,0.5l0.1,0.4 l0.4,0l0.3-0.4l0.1-0.5l-0.2-0.2L341,63.6" class="st9"/></g><g><path d="M347.6,61.3c0.1,0.4,0,1-0.3,1.5l-2.8,5.6c-0.3,0.5-0.6,1-1.1,1.2l-4.5,2.6c-0.4,0.2-0.8,0.2-1.1,0l-2.8-2.4 l-0.1-0.1c-0.2-0.2-0.3-0.6-0.2-1.1l1-5.6c0.1-0.5,0.4-1.1,0.7-1.5l4-4.5c0.2-0.2,0.3-0.3,0.5-0.5l0.1,0c0.2-0.1,0.4-0.2,0.6-0.2 l4-0.1c0.4,0,0.7,0.2,0.7,0.6L347.6,61.3z M346.8,62.6c0.1-0.3,0.2-0.6,0.2-0.8l-1-4.4c-0.1-0.2-0.2-0.4-0.4-0.4l-4,0.1 c-0.1,0-0.2,0-0.3,0.1c-0.1,0.1-0.2,0.2-0.3,0.3l-4,4.6c-0.2,0.2-0.4,0.5-0.4,0.8l-1,5.6c-0.1,0.3,0,0.5,0.1,0.6l0,0l2.8,2.4 c0.1,0.1,0.4,0.1,0.6,0l4.5-2.6c0.2-0.1,0.5-0.4,0.6-0.7L346.8,62.6" class="st9"/></g></g></svg>